<?xml version="1.0" encoding="utf-8"?>
<!-- Generator: Adobe Illustrator 26.0.3, SVG Export Plug-In . SVG Version: 6.00 Build 0)  -->
<svg version="1.1" id="Layer_1" xmlns="http://www.w3.org/2000/svg" xmlns:xlink="http://www.w3.org/1999/xlink" x="0px" y="0px"
	 viewBox="0 0 1417.32 1417.32" style="enable-background:new 0 0 1417.32 1417.32;" xml:space="preserve">
<style type="text/css">
	.st0{opacity:0.4;}
	.st1{fill:#FFFFFF;}
	.st2{fill:url(#SVGID_1_);}
	.st3{fill:url(#SVGID_00000152962181721739595870000013673273668162412678_);}
	.st4{fill:url(#SVGID_00000073710850039203800490000012770567367659397050_);}
	.st5{fill:url(#SVGID_00000031181358532636570160000012302180419837194112_);}
	.st6{fill:url(#SVGID_00000183969805935052260220000007263487256927702702_);}
	.st7{fill:url(#SVGID_00000113315269019517529060000001806275133135593362_);}
	.st8{fill:#2C2661;}
	.st9{opacity:0.51;}
	.st10{fill:#464193;}
	.st11{fill:url(#SVGID_00000032617187180279748050000005582983928062929550_);}
	.st12{fill:url(#SVGID_00000062891593722800293090000005904717006526241415_);}
	.st13{fill:#2E4697;}
	.st14{fill:#AEAFD9;}
	.st15{fill:#9298CC;}
	.st16{fill:url(#SVGID_00000183955735551486680990000011291510310151679132_);}
	.st17{opacity:0.11;}
	.st18{clip-path:url(#SVGID_00000008857437172770115720000006544004609154409886_);}
	.st19{fill:url(#SVGID_00000026857040892481391320000012835863702236297607_);}
	.st20{fill:url(#SVGID_00000039124194899679232100000012371038550481425562_);}
	.st21{fill:#6DC4CB;}
	.st22{fill:url(#SVGID_00000110430382152686544680000015348401435175645348_);}
	.st23{fill:url(#SVGID_00000018213657762360551700000011999372472187741841_);}
	.st24{fill:url(#SVGID_00000005267051186829412340000006331359030651067272_);}
	.st25{fill:url(#SVGID_00000033362896666424799380000011748034802917635773_);}
	.st26{fill:url(#SVGID_00000009564931916456711060000010766857546934433196_);}
	.st27{fill:url(#SVGID_00000061435520893003287600000004991608006041865654_);}
	.st28{fill:url(#SVGID_00000002381569189467113290000007580704902521559185_);}
	.st29{fill:url(#SVGID_00000060746452076532461390000018297799243802789534_);}
	.st30{fill:url(#SVGID_00000132777006149598694170000002751436917037534604_);}
	.st31{fill:#252553;}
	.st32{fill:url(#SVGID_00000080180761583933796920000008837337072739693722_);}
	.st33{fill:url(#SVGID_00000001642187555618871380000014074360471264023743_);}
	.st34{fill:#F0F6FD;}
	.st35{fill:#FAD1C6;}
	.st36{fill:#494999;}
	.st37{fill:#AA8383;}
	.st38{fill:#C5CDD7;}
	.st39{fill:#E2B2A6;}
	.st40{fill:url(#SVGID_00000178898924824205190510000013906442949546015661_);}
	.st41{fill:#936E6D;}
	.st42{fill:url(#SVGID_00000064322775126894095130000016899679126574682032_);}
	.st43{fill:url(#SVGID_00000156586087672914387930000008873639263001698988_);}
	.st44{fill:url(#SVGID_00000065068908550262477010000000539223876071459968_);}
	.st45{fill:#515DA7;}
	.st46{opacity:0.3;fill:#494999;}
	.st47{opacity:0.1;fill:#494999;}
	.st48{fill:url(#SVGID_00000142160485995645778380000016212514284177344143_);}
	.st49{fill:url(#SVGID_00000166669702129350301480000001680917579980560011_);}
	.st50{fill:url(#SVGID_00000158734587104978974970000014770833517787903115_);}
	.st51{opacity:0.5;fill:#FFFFFF;}
	.st52{fill:#202045;}
	.st53{opacity:0.5;fill:url(#SVGID_00000178891251590959463140000013966622607515081102_);}
	.st54{opacity:0.5;fill:url(#SVGID_00000138559134328036651100000016219948136260290473_);}
	.st55{opacity:0.5;fill:url(#SVGID_00000045587144986771400450000005473041891488495019_);}
	.st56{opacity:0.5;fill:url(#SVGID_00000067932209451151862030000005736555718667255999_);}
	.st57{opacity:0.5;fill:url(#SVGID_00000137854351219170997590000002851273450622828479_);}
	.st58{opacity:0.5;fill:url(#SVGID_00000078730896304978983760000010591566642770244737_);}
</style>
<g id="Circle_Landing" class="st0">
	<g>
		<path class="st1" d="M826.34,680.76c-65.41-41.87-171.14-41.87-236.13,0c-0.31,0.2-0.6,0.39-0.9,0.59
			c-41.84,27.35-56.09,65.6-42.84,100.44c7.04,18.55,21.88,36.14,44.49,50.61c65.42,41.87,171.17,41.87,236.17,0
			C892.12,790.53,891.76,722.63,826.34,680.76L826.34,680.76z"/>
		<path class="st1" d="M856.8,661.13c-82.22-52.63-215.56-52.63-297.24,0c-2.19,1.41-4.33,2.85-6.4,4.3l4.17,1.84
			c1.86-1.31,3.79-2.59,5.77-3.87c79.73-51.37,209.92-51.37,290.17,0c80.27,51.38,80.7,134.98,0.97,186.34
			c-79.75,51.38-209.94,51.38-290.21,0c-29.44-18.85-48.16-42.03-56.08-66.38l-5.05,0.2c8.04,25.12,27.26,49.03,57.6,68.45
			c82.23,52.63,215.59,52.63,297.29,0C939.48,799.39,939.03,713.77,856.8,661.13L856.8,661.13z"/>
		<path class="st1" d="M886.49,642.01c-98.68-63.16-258.77-63.16-356.81,0c-4.02,2.59-7.89,5.26-11.58,7.98l11.12,4.89
			c3.19-2.31,6.5-4.59,9.94-6.8c92.85-59.82,244.46-59.82,337.92,0c93.48,59.83,93.98,157.19,1.12,217.01
			c-92.87,59.83-244.48,59.84-337.96,0c-35.51-22.73-57.58-50.87-66.23-80.32l-13.43,0.55c8.93,31.46,32.34,61.57,70.25,85.84
			c98.7,63.18,258.79,63.18,356.86,0C985.71,807.98,985.19,705.18,886.49,642.01L886.49,642.01z"/>
		<path class="st1" d="M947.23,602.87c-132.4-84.75-347.15-84.74-478.69,0c-131.56,84.76-130.86,222.66,1.54,307.4
			c55.72,35.67,126.02,56.33,198.56,61.96l-0.7-18.42c-65.02-5.61-127.83-24.42-177.85-56.43
			c-121.29-77.63-121.94-203.98-1.41-281.63c120.51-77.64,317.25-77.64,438.55,0c78.59,50.3,106.54,121.02,83.73,185.71l26.89,6.24
			C1064.13,736.53,1033.86,658.33,947.23,602.87L947.23,602.87z"/>
		<path class="st1" d="M448.31,924.32c-144.5-92.49-145.28-242.98-1.71-335.47c143.56-92.49,377.92-92.49,522.42,0
			c144.5,92.49,145.26,242.98,1.69,335.47C827.15,1016.8,592.81,1016.81,448.31,924.32L448.31,924.32z M973.72,585.82
			c-71.26-45.61-165.83-70.74-266.29-70.74c-100.46,0-194.77,25.12-265.57,70.74S332.25,692.08,332.58,756.58
			c0.33,64.51,39.75,125.16,111.01,170.77s165.84,70.73,266.3,70.73c100.43,0,194.76-25.12,265.56-70.73
			c70.8-45.61,109.61-106.27,109.29-170.77C1084.42,692.07,1044.99,631.43,973.72,585.82L973.72,585.82z"/>
		<path class="st1" d="M1187.59,648.09l-11.51,2.2c51.22,92.56,34.06,197.28-51.64,281.38l9.62,4.4
			c54.14-52.81,83.03-114.71,82.69-179.49C1216.56,719.05,1206.57,682.48,1187.59,648.09L1187.59,648.09z M1048.74,514.87
			c-93.91-54.65-214.34-84.56-341.74-84.56c-135.71,0-263.14,33.93-358.79,95.56c-95.67,61.64-148.1,143.58-147.64,230.72
			c0.43,87.15,53.7,169.09,149.97,230.71c96.3,61.63,224.06,95.57,359.77,95.56c81.27,0.01,159.54-12.16,229.82-35.16l-5.86-6.67
			c-185.92,60.43-419.61,40.74-575.49-59.03c-194.18-124.29-195.21-326.52-2.28-450.81c187.06-120.51,488.82-124.18,683.99-10.99
			L1048.74,514.87L1048.74,514.87z"/>
		<path class="st1" d="M1119.64,491.8c-55.83-35.73-120.89-63.41-193.32-82.25c-69.95-18.19-143.82-27.42-219.56-27.42
			c-75.74,0-149.51,9.22-219.28,27.42C415.24,428.39,350.46,456.07,295,491.8c-55.49,35.75-98.35,77.42-127.46,123.88
			c-28.11,44.86-42.24,92.27-41.98,140.9c0.25,48.64,14.84,96.05,43.41,140.9c1.85,2.91,3.76,5.81,5.72,8.68l11.27-2.39
			c-92-134.35-53.03-296.9,117.34-406.66c222.06-143.07,584.59-143.07,808.11,0c223.53,143.07,224.71,375.87,2.65,518.93
			c-138.18,89.02-330.75,122.67-510.37,100.89l-2.85,7.48c35.97,4.4,72.64,6.63,109.74,6.61c75.73,0.01,149.51-9.22,219.29-27.41
			c72.24-18.85,137-46.51,192.48-82.26c55.47-35.73,98.36-77.42,127.46-123.86c28.1-44.87,42.22-92.27,41.97-140.91
			c-0.24-48.63-14.84-96.04-43.41-140.9C1218.8,569.23,1175.49,527.54,1119.64,491.8L1119.64,491.8z"/>
		<path class="st1" d="M1157.11,467.66c-60.92-38.99-131.9-69.2-210.94-89.75c-44.08-11.47-89.61-19.66-136.14-24.54l0.84,2.46
			c125.87,13.38,246.75,51.17,343.89,113.35c247.6,158.48,248.91,416.34,2.94,574.81c-245.99,158.48-647.56,158.48-895.16,0
			c-247.58-158.46-248.89-416.33-2.9-574.81c29.51-19.01,61.28-35.74,94.74-50.18l-0.79-2.34c-34.41,14.81-66.59,31.85-96.32,51
			c-60.55,39.01-107.36,84.49-139.1,135.18c-30.67,48.95-46.07,100.68-45.81,153.75c0.27,53.06,16.22,104.79,47.37,153.75
			c32.26,50.68,79.52,96.17,140.45,135.16c60.95,39.01,131.92,69.2,210.96,89.76c76.34,19.85,156.94,29.91,239.58,29.92
			c82.64-0.01,163.14-10.07,239.28-29.92c78.82-20.55,149.5-50.75,210.05-89.76c60.53-39,107.33-84.48,139.07-135.16
			c30.66-48.96,46.08-100.69,45.81-153.75c-0.28-53.07-16.2-104.8-47.37-153.75C1265.32,552.13,1218.06,506.66,1157.11,467.66
			L1157.11,467.66z"/>
	</g>
</g>
<g>
	
		<linearGradient id="SVGID_1_" gradientUnits="userSpaceOnUse" x1="-590.8192" y1="734.7518" x2="-436.7425" y2="734.7518" gradientTransform="matrix(0.866 0.5 -1 0.5774 1712.0209 368.8555)">
		<stop  offset="0" style="stop-color:#6DC4CB"/>
		<stop  offset="0.1333" style="stop-color:#6BC2CB"/>
		<stop  offset="0.2906" style="stop-color:#67B9CA"/>
		<stop  offset="0.4599" style="stop-color:#61ACC7"/>
		<stop  offset="0.6377" style="stop-color:#5A98C1"/>
		<stop  offset="0.8203" style="stop-color:#547DB7"/>
		<stop  offset="1" style="stop-color:#515DA7"/>
	</linearGradient>
	<path class="st2" d="M597.69,575.06c-0.48,0-0.98-0.12-1.43-0.37l-130.71-72.21c-1.37-0.76-1.84-2.43-1.05-3.74
		c0.79-1.31,2.54-1.76,3.91-1l130.71,72.21c1.37,0.76,1.84,2.43,1.05,3.74C599.64,574.56,598.67,575.06,597.69,575.06z"/>
	
		<linearGradient id="SVGID_00000067954955762895687140000006358820628972904364_" gradientUnits="userSpaceOnUse" x1="427.106" y1="2645.1934" x2="659.5218" y2="2645.1934" gradientTransform="matrix(1 0 0 -1 -298.1047 3264.7776)">
		<stop  offset="0" style="stop-color:#6DC4CB"/>
		<stop  offset="0.1333" style="stop-color:#6BC2CB"/>
		<stop  offset="0.2906" style="stop-color:#67B9CA"/>
		<stop  offset="0.4599" style="stop-color:#61ACC7"/>
		<stop  offset="0.6377" style="stop-color:#5A98C1"/>
		<stop  offset="0.8203" style="stop-color:#547DB7"/>
		<stop  offset="1" style="stop-color:#515DA7"/>
	</linearGradient>
	<path style="fill:url(#SVGID_00000067954955762895687140000006358820628972904364_);" d="M358.34,739.36
		c-0.52,0-1.06-0.13-1.54-0.4L130.53,612.97c-0.96-0.54-1.54-1.53-1.53-2.59c0.02-1.06,0.63-2.04,1.61-2.54l207.36-107.67
		c1.49-0.78,3.36-0.24,4.17,1.18c0.81,1.43,0.26,3.21-1.24,3.99L138.35,610.51l221.54,123.36c1.47,0.82,1.96,2.62,1.11,4.02
		C360.43,738.84,359.4,739.36,358.34,739.36z"/>
	<g>
		
			<linearGradient id="SVGID_00000009566429342871766510000018234097531621085571_" gradientUnits="userSpaceOnUse" x1="874.6067" y1="749.7106" x2="874.6067" y2="603.7256" gradientTransform="matrix(-0.866 -0.5 0 1.1547 1514.7078 6.199)">
			<stop  offset="0" style="stop-color:#C1BEE0"/>
			<stop  offset="0.276" style="stop-color:#C5C2E3"/>
			<stop  offset="0.6014" style="stop-color:#D1CFE9"/>
			<stop  offset="0.9504" style="stop-color:#E6E5F4"/>
			<stop  offset="1" style="stop-color:#E9E8F6"/>
		</linearGradient>
		<path style="fill:url(#SVGID_00000009566429342871766510000018234097531621085571_);" d="M634.71,363.81l245.18,135.46
			c6.7,3.7,12.13-0.23,12.13-8.78v-131.5c0-8.55-5.43-18.48-12.13-22.18L634.71,201.34c-6.7-3.7-12.13,0.23-12.13,8.78v131.5
			C622.58,350.17,628.01,360.1,634.71,363.81z"/>
		<g>
			<g>
				<g>
					<g>
						<g>
							<g>
								
									<linearGradient id="SVGID_00000037690432339227261070000014706790247410095537_" gradientUnits="userSpaceOnUse" x1="462.9656" y1="718.8065" x2="1074.9731" y2="718.8065" gradientTransform="matrix(-1 0 0 1 1563.5524 0)">
									<stop  offset="0" style="stop-color:#6DC4CB"/>
									<stop  offset="0.1333" style="stop-color:#6BC2CB"/>
									<stop  offset="0.2906" style="stop-color:#67B9CA"/>
									<stop  offset="0.4599" style="stop-color:#61ACC7"/>
									<stop  offset="0.6377" style="stop-color:#5A98C1"/>
									<stop  offset="0.8203" style="stop-color:#547DB7"/>
									<stop  offset="1" style="stop-color:#515DA7"/>
								</linearGradient>
								<path style="fill:url(#SVGID_00000037690432339227261070000014706790247410095537_);" d="M853.45,885.61L492.77,686.34
									c-2.63-1.45-4.19-4.05-4.19-6.95c0-2.9,1.56-5.5,4.19-6.96l224.11-123.82l1.75-0.97l377.76,208.7
									c2.63,1.45,4.2,4.05,4.2,6.96c0,2.9-1.57,5.5-4.2,6.96L887.61,885.61c-5.27,2.91-11.17,4.36-17.08,4.36
									C864.62,889.97,858.72,888.52,853.45,885.61z M496.28,678.23c-0.6,0.33-0.69,0.86-0.69,1.15c0,0.28,0.09,0.82,0.69,1.15
									L856.95,879.8c8.37,4.63,18.78,4.63,27.15,0l208.78-115.35c0.6-0.33,0.69-0.86,0.69-1.15c0-0.28-0.09-0.81-0.69-1.15
									L718.63,555.39L496.28,678.23z"/>
							</g>
							<g>
								<g>
									
										<linearGradient id="SVGID_00000131369397107775219420000017050700049852583048_" gradientUnits="userSpaceOnUse" x1="381.5562" y1="437.6918" x2="845.4651" y2="437.6918" gradientTransform="matrix(-1 0 0 1 1563.5524 0)">
										<stop  offset="0" style="stop-color:#C1BEE0"/>
										<stop  offset="0.276" style="stop-color:#C5C2E3"/>
										<stop  offset="0.6014" style="stop-color:#D1CFE9"/>
										<stop  offset="0.9504" style="stop-color:#E6E5F4"/>
										<stop  offset="1" style="stop-color:#E9E8F6"/>
									</linearGradient>
									<path style="fill:url(#SVGID_00000131369397107775219420000017050700049852583048_);" d="M718.17,465.3l50.25-285.27
										l-4.04-1.63l6.07-3.33l-0.01,0.03c1.18-0.75,2.84-0.7,4.68,0.31l401.58,221.87c3.3,1.82,5.79,6.49,5.21,9.76l-50.65,287.54
										c-0.27,1.5-1.04,2.49-2.12,2.93l0.01,0l-5.94,3.28l-1.02-5.31l0.34,0.1L723.39,475.06
										C720.09,473.24,717.59,468.57,718.17,465.3z"/>
									
										<linearGradient id="SVGID_00000151541208977435405580000017086375977155720366_" gradientUnits="userSpaceOnUse" x1="381.5592" y1="551.5395" x2="461.2169" y2="551.5395" gradientTransform="matrix(-1 0 0 1 1563.5524 0)">
										<stop  offset="0" style="stop-color:#515DA7"/>
										<stop  offset="0.1601" style="stop-color:#5561A9"/>
										<stop  offset="0.3488" style="stop-color:#626BB0"/>
										<stop  offset="0.552" style="stop-color:#777CBB"/>
										<stop  offset="0.7655" style="stop-color:#9496CA"/>
										<stop  offset="0.9849" style="stop-color:#BAB9DE"/>
										<stop  offset="1" style="stop-color:#BCBCDF"/>
									</linearGradient>
									<path style="fill:url(#SVGID_00000151541208977435405580000017086375977155720366_);" d="M1174.46,405.08l6.6-2.8
										c0.74,1.62,1.1,3.32,0.85,4.76l-50.65,287.54c-0.27,1.5-1.04,2.49-2.12,2.93l0.01,0l-5.94,3.28l-1.02-5.31l0.34,0.1
										l-20.2-11.16L1174.46,405.08z"/>
									<path class="st8" d="M717.09,478.52l401.58,221.87c3.1,1.71,5.75,0.72,6.3-2.35l50.65-287.54
										c0.58-3.27-1.92-7.94-5.21-9.76L768.82,178.87c-3.1-1.71-5.76-0.72-6.3,2.35l-50.65,287.54
										C711.29,472.03,713.79,476.7,717.09,478.52z"/>
									<g class="st9">
										<polygon class="st10" points="774.07,197.22 1161.16,411.09 1113.16,681.89 726.32,468.17 										"/>
									</g>
								</g>
								<g>
									
										<linearGradient id="SVGID_00000065059131965709741300000000792816135531416746_" gradientUnits="userSpaceOnUse" x1="443.7092" y1="679.5176" x2="1098.9003" y2="679.5176" gradientTransform="matrix(-1 0 0 1 1563.5524 0)">
										<stop  offset="0" style="stop-color:#515DA7"/>
										<stop  offset="0.1601" style="stop-color:#5561A9"/>
										<stop  offset="0.3488" style="stop-color:#626BB0"/>
										<stop  offset="0.552" style="stop-color:#777CBB"/>
										<stop  offset="0.7655" style="stop-color:#9496CA"/>
										<stop  offset="0.9849" style="stop-color:#BAB9DE"/>
										<stop  offset="1" style="stop-color:#BCBCDF"/>
									</linearGradient>
									<path style="fill:url(#SVGID_00000065059131965709741300000000792816135531416746_);" d="M464.65,614.65l21.92,10.95
										l219.75-121.41c3.68-2.03,10.1-1.78,14.34,0.57l379.01,209.4c3.63-1.94,20.16-9.55,20.16-9.55l-8.02,20
										c0,0-0.03-0.02-0.03-0.02c-0.33,0.89-1.05,1.72-2.24,2.38L878.1,854.84c-3.68,2.03-10.1,1.78-14.34-0.57L475.91,639.99
										c-1.74-0.96-2.81-2.13-3.25-3.31l-0.03,0.02L464.65,614.65z"/>
									
										<linearGradient id="SVGID_00000103256963539883439710000012731096223863484069_" gradientUnits="userSpaceOnUse" x1="663.8557" y1="658.612" x2="1319.3956" y2="658.612" gradientTransform="matrix(-1 0 0 1 1563.5524 0)">
										<stop  offset="0" style="stop-color:#C1BEE0"/>
										<stop  offset="0.276" style="stop-color:#C5C2E3"/>
										<stop  offset="0.6014" style="stop-color:#D1CFE9"/>
										<stop  offset="0.9504" style="stop-color:#E6E5F4"/>
										<stop  offset="1" style="stop-color:#E9E8F6"/>
									</linearGradient>
									<path style="fill:url(#SVGID_00000103256963539883439710000012731096223863484069_);" d="M468.04,618.1l397.5,219.61
										c4.35,2.4,10.93,2.66,14.7,0.58l237.2-131.05c3.77-2.08,3.3-5.72-1.06-8.12l-397.5-219.61c-4.35-2.4-10.93-2.67-14.7-0.58
										l-237.2,131.05C463.22,612.06,463.69,615.7,468.04,618.1z"/>
									<path class="st1" d="M468.04,615.91l397.5,219.61c4.35,2.4,10.93,2.67,14.7,0.58l237.2-131.05
										c1.23-0.68,1.97-1.54,2.3-2.45c0.6,1.71-0.12,3.44-2.3,4.65l-237.2,131.05c-3.77,2.08-10.35,1.82-14.7-0.58L468.04,618.1
										c-2.93-1.62-4.05-3.78-3.36-5.67C465.11,613.67,466.21,614.9,468.04,615.91z"/>
									<path class="st13" d="M985.43,790.21v-4.17c0-0.4-0.25-0.58-0.56-0.41l-15.37,8.49c-0.31,0.17-0.56,0.63-0.56,1.03v4.17
										c0,0.4,0.25,0.58,0.56,0.41l15.37-8.49C985.18,791.06,985.43,790.6,985.43,790.21z"/>
									<path class="st13" d="M962.44,802.91v-4.17c0-0.4-0.25-0.58-0.56-0.41l-15.37,8.49c-0.31,0.17-0.56,0.63-0.56,1.03v4.17
										c0,0.4,0.25,0.58,0.56,0.41l15.37-8.49C962.19,803.76,962.44,803.3,962.44,802.91z"/>
									<path class="st14" d="M1055.6,694.97l-330.32-182.5c-2.2-1.22-4.92-1.22-7.12,0L600.53,577.6c-1.69,0.93-1.69,3.27,0,4.2
										L930.7,764.21c2.2,1.22,4.91,1.22,7.11,0l117.78-65.04C1057.29,698.24,1057.29,695.91,1055.6,694.97z"/>
									<path class="st15" d="M1055.6,699.17l-1.18,0.65L725.28,517.98c-2.2-1.22-4.92-1.22-7.12,0l-116.44,64.47l-1.18-0.65
										c-1.69-0.93-1.69-3.27,0-4.2l117.63-65.12c2.2-1.22,4.91-1.22,7.12,0l330.32,182.5
										C1057.29,695.91,1057.29,698.24,1055.6,699.17z"/>
									<g>
										<polygon class="st8" points="709.28,528.97 996.21,687.49 1008.97,680.45 722.04,521.92 										"/>
										<polygon class="st8" points="678.01,546.25 947.14,694.94 959.89,687.89 690.76,539.2 										"/>
										<polygon class="st8" points="657.64,557.51 974.5,732.57 987.26,725.52 670.39,550.46 										"/>
										<polygon class="st8" points="637.26,568.76 954.13,743.83 966.89,736.78 650.02,561.71 										"/>
										<polygon class="st8" points="616.89,580.02 933.76,755.08 946.52,748.03 629.65,572.97 										"/>
										<polygon class="st8" points="1013.55,697.07 1026.31,704.12 1039.07,697.07 1026.31,690.02 										"/>
										<polygon class="st8" points="968.55,706.77 995.03,721.4 1007.79,714.35 981.31,699.72 										"/>
									</g>
									
										<linearGradient id="SVGID_00000078730848993056307530000011016904016753155715_" gradientUnits="userSpaceOnUse" x1="774.8706" y1="694.2233" x2="942.6703" y2="694.2233" gradientTransform="matrix(-1 0 0 1 1563.5524 0)">
										<stop  offset="0" style="stop-color:#C1BEE0"/>
										<stop  offset="0.276" style="stop-color:#C5C2E3"/>
										<stop  offset="0.6014" style="stop-color:#D1CFE9"/>
										<stop  offset="0.9504" style="stop-color:#E6E5F4"/>
										<stop  offset="1" style="stop-color:#E9E8F6"/>
									</linearGradient>
									<path style="fill:url(#SVGID_00000078730848993056307530000011016904016753155715_);" d="M712.56,739.13l-89.07-49.21
										c-3.48-1.92-3.48-5.04,0-6.96l60.91-33.65c3.48-1.92,9.13-1.92,12.61,0l89.07,49.21c3.48,1.92,3.48,5.04,0,6.96
										l-60.91,33.65C721.68,741.06,716.04,741.06,712.56,739.13z"/>
									<path class="st15" d="M786.07,701.37L697,652.16c-3.48-1.92-9.13-1.92-12.61,0l-60.91,33.65
										c-1.07,0.59-1.78,1.31-2.19,2.06c-0.92-1.68-0.22-3.58,2.19-4.91l60.91-33.65c3.48-1.92,9.13-1.92,12.61,0l89.07,49.21
										c2.41,1.33,3.11,3.23,2.19,4.91C787.85,702.68,787.15,701.96,786.07,701.37z"/>
								</g>
							</g>
							<g class="st17">
								<defs>
									<polygon id="SVGID_7_" class="st17" points="774.07,197.22 1161.16,411.09 1113.16,681.89 726.32,468.17 									"/>
								</defs>
								<clipPath id="SVGID_00000047774537255845012340000010524383362980348818_">
									<use xlink:href="#SVGID_7_"  style="overflow:visible;"/>
								</clipPath>
								<g style="clip-path:url(#SVGID_00000047774537255845012340000010524383362980348818_);">
									
										<linearGradient id="SVGID_00000035526249292058829130000006186618121544189605_" gradientUnits="userSpaceOnUse" x1="413.4017" y1="519.5714" x2="1068.9418" y2="519.5714" gradientTransform="matrix(-1 0 0 1 1563.5524 0)">
										<stop  offset="0" style="stop-color:#C1BEE0"/>
										<stop  offset="0.276" style="stop-color:#C5C2E3"/>
										<stop  offset="0.6014" style="stop-color:#D1CFE9"/>
										<stop  offset="0.9504" style="stop-color:#E6E5F4"/>
										<stop  offset="1" style="stop-color:#E9E8F6"/>
									</linearGradient>
									<path style="fill:url(#SVGID_00000035526249292058829130000006186618121544189605_);" d="M718.49,479.06l397.5,219.61
										c4.35,2.4,10.93,2.67,14.7,0.58l237.2-131.05c3.77-2.08,3.3-5.72-1.06-8.12l-397.5-219.61c-4.35-2.4-10.93-2.66-14.7-0.58
										l-237.2,131.05C713.67,473.02,714.14,476.66,718.49,479.06z"/>
									
										<linearGradient id="SVGID_00000025433428436969142260000008592295798930074516_" gradientUnits="userSpaceOnUse" x1="370.2562" y1="473.5226" x2="538.056" y2="473.5226" gradientTransform="matrix(-1 0 0 1 1563.5524 0)">
										<stop  offset="0" style="stop-color:#C1BEE0"/>
										<stop  offset="0.276" style="stop-color:#C5C2E3"/>
										<stop  offset="0.6014" style="stop-color:#D1CFE9"/>
										<stop  offset="0.9504" style="stop-color:#E6E5F4"/>
										<stop  offset="1" style="stop-color:#E9E8F6"/>
									</linearGradient>
									<path style="fill:url(#SVGID_00000025433428436969142260000008592295798930074516_);" d="M1117.17,518.43l-89.07-49.21
										c-3.48-1.92-3.48-5.04,0-6.96l60.91-33.65c3.48-1.92,9.13-1.92,12.61,0l89.07,49.21c3.48,1.92,3.48,5.04,0,6.96
										l-60.91,33.65C1126.3,520.36,1120.65,520.36,1117.17,518.43z"/>
									<path class="st15" d="M1190.69,480.67l-89.07-49.21c-3.48-1.92-9.13-1.92-12.61,0l-60.91,33.65
										c-1.07,0.59-1.78,1.31-2.19,2.06c-0.92-1.68-0.22-3.58,2.19-4.91l60.91-33.65c3.48-1.92,9.13-1.92,12.61,0l89.07,49.21
										c2.41,1.33,3.11,3.23,2.19,4.91C1192.46,481.98,1191.76,481.26,1190.69,480.67z"/>
									<g>
										<path class="st14" d="M1229.84,595.33l-330.32-182.5c-2.2-1.22-4.92-1.22-7.12,0l-117.63,65.12
											c-1.69,0.94-1.69,3.27,0,4.2l330.17,182.41c2.2,1.22,4.91,1.22,7.11,0l117.78-65.04
											C1231.53,598.6,1231.53,596.27,1229.84,595.33z"/>
										<path class="st15" d="M1229.84,599.54l-1.18,0.65L899.52,418.35c-2.2-1.22-4.92-1.22-7.12,0l-116.44,64.47l-1.18-0.65
											c-1.69-0.93-1.69-3.27,0-4.2l117.63-65.12c2.2-1.22,4.91-1.22,7.12,0l330.32,182.5
											C1231.53,596.27,1231.53,598.6,1229.84,599.54z"/>
										<g>
											<polygon class="st8" points="805.56,473.52 1093.33,632.51 1081.93,638.81 794.16,479.82 											"/>
											<polygon class="st8" points="835.88,456.77 1109.4,607.88 1098,614.18 824.48,463.07 											"/>
											<polygon class="st8" points="1129.82,619.17 1155.37,633.28 1143.97,639.58 1118.42,625.47 											"/>
											<polygon class="st8" points="1107.26,640.21 1125.05,650.03 1113.65,656.33 1095.86,646.5 											"/>
											<polygon class="st8" points="854.88,446.27 1174.36,622.79 1162.96,629.08 843.48,452.57 											"/>
											<polygon class="st8" points="873.88,435.78 1193.36,612.29 1181.96,618.59 862.48,442.08 											"/>
											<polygon class="st8" points="892.87,425.28 1212.36,601.79 1200.96,608.09 881.48,431.58 											"/>
										</g>
									</g>
								</g>
							</g>
						</g>
					</g>
				</g>
				<g>
					<g>
						<polygon class="st21" points="1125.37,427.12 1133.01,431.79 1133.93,426.37 1126.3,421.7 						"/>
						<polygon class="st21" points="1119.12,463.79 1126.75,468.46 1132.16,436.73 1124.53,432.06 						"/>
						<polygon class="st21" points="1116.12,481.32 1123.76,485.99 1125.91,473.4 1118.27,468.73 						"/>
						<polygon class="st21" points="1113.02,499.5 1120.66,504.17 1122.81,491.57 1115.17,486.9 						"/>
						<polygon class="st21" points="1111,437.69 1118.63,442.36 1120.78,429.76 1113.15,425.09 						"/>
						<polygon class="st21" points="1106.89,461.76 1114.52,466.43 1117.68,447.94 1110.05,443.27 						"/>
						<polygon class="st21" points="1103.11,483.92 1110.74,488.59 1113.45,472.73 1105.82,468.06 						"/>
						<polygon class="st21" points="1109.92,517.67 1117.55,522.34 1119.7,509.75 1112.07,505.08 						"/>
						<polygon class="st21" points="1113.99,420.15 1121.62,424.82 1122.55,419.4 1114.92,414.73 						"/>
					</g>
					<polygon class="st21" points="1101.22,531.83 1114.55,539.98 1115.44,534.72 1102.12,526.56 					"/>
				</g>
			</g>
			<g>
				<g>
					
						<linearGradient id="SVGID_00000057106656886018153610000013575139064279936917_" gradientUnits="userSpaceOnUse" x1="847.634" y1="827.6653" x2="1247.6613" y2="827.6653" gradientTransform="matrix(-1 0 0 1 1563.5524 0)">
						<stop  offset="0" style="stop-color:#6DC4CB"/>
						<stop  offset="0.1333" style="stop-color:#6BC2CB"/>
						<stop  offset="0.2906" style="stop-color:#67B9CA"/>
						<stop  offset="0.4599" style="stop-color:#61ACC7"/>
						<stop  offset="0.6377" style="stop-color:#5A98C1"/>
						<stop  offset="0.8203" style="stop-color:#547DB7"/>
						<stop  offset="1" style="stop-color:#515DA7"/>
					</linearGradient>
					<path style="fill:url(#SVGID_00000057106656886018153610000013575139064279936917_);" d="M630.13,937.72L630.13,937.72
						l-310.4-171.49c-2.44-1.35-3.84-3.44-3.84-5.74c0-2.58,1.75-5.03,4.81-6.71l64.51-35.64c4.89-2.7,12.12-2.94,16.48-0.53
						L712.08,889.1c2.44,1.35,3.84,3.44,3.84,5.74c0,2.58-1.76,5.02-4.81,6.71l-64.51,35.64c-2.63,1.45-5.93,2.19-9.11,2.19
						C634.77,939.38,632.14,938.83,630.13,937.72z M388.24,723.17l-64.51,35.64c-1.48,0.81-1.78,1.54-1.78,1.69
						c0,0.07,0.19,0.37,0.81,0.72l310.4,171.49v0c2.51,1.39,7.38,1.14,10.41-0.53l64.51-35.64c1.47-0.81,1.77-1.54,1.77-1.69
						c0-0.07-0.19-0.38-0.81-0.72L398.65,722.63c-1.1-0.61-2.64-0.9-4.29-0.9C392.23,721.73,389.95,722.22,388.24,723.17z"/>
					<g>
						
							<linearGradient id="SVGID_00000078036658922509481630000012125481608450559380_" gradientUnits="userSpaceOnUse" x1="753.644" y1="568.3508" x2="1125.837" y2="568.3508" gradientTransform="matrix(-0.866 -0.5 0 1.1547 1368.9563 524.7959)">
							<stop  offset="0" style="stop-color:#515DA7"/>
							<stop  offset="0.1601" style="stop-color:#5561A9"/>
							<stop  offset="0.3488" style="stop-color:#626BB0"/>
							<stop  offset="0.552" style="stop-color:#777CBB"/>
							<stop  offset="0.7655" style="stop-color:#9496CA"/>
							<stop  offset="0.9849" style="stop-color:#BAB9DE"/>
							<stop  offset="1" style="stop-color:#BCBCDF"/>
						</linearGradient>
						<path style="fill:url(#SVGID_00000078036658922509481630000012125481608450559380_);" d="M445.91,618.92
							c8.16,4.51,15.88,10.86,22.75,18.36c9.53-29.31,38.61-38.4,73.02-19.39c28.46,15.73,53.27,46.66,66.4,79.43
							c4.35,0.13,9.19,1.5,14.32,4.34c18.58,10.26,33.63,35.22,33.63,55.74c0,0.44-0.05,0.85-0.06,1.28
							c5.3,0.35,11.15,2.14,17.31,5.55c23.76,13.13,43.02,45.05,43.02,71.3s-19.26,36.89-43.02,23.76L445.91,733.67
							c-28.68-15.84-51.93-54.38-51.93-86.06S417.23,603.08,445.91,618.92z"/>
						
							<radialGradient id="SVGID_00000000209412161859008140000015757877785035945360_" cx="475.0287" cy="869.9715" r="49.835" fx="428.0322" fy="853.3926" gradientTransform="matrix(-3.0852 0 0 2.9523 2106.1199 -1862.3202)" gradientUnits="userSpaceOnUse">
							<stop  offset="0" style="stop-color:#2E2B76"/>
							<stop  offset="1" style="stop-color:#262554"/>
						</radialGradient>
						<path style="fill:url(#SVGID_00000000209412161859008140000015757877785035945360_);" d="M445.91,618.92
							c4.73,2.61,9.31,5.86,13.66,9.58l25.42-14.06l0,0.01c13.97-9.4,34.19-8.99,56.69,3.44c28.46,15.73,53.27,46.66,66.4,79.43
							c4.35,0.13,9.19,1.5,14.32,4.34c18.58,10.26,33.63,35.22,33.63,55.74c0,0.44-0.05,0.85-0.06,1.28
							c5.3,0.35,11.15,2.14,17.31,5.55c23.76,13.13,43.02,45.05,43.02,71.3c0,13.01-4.74,22.17-12.4,26.52l0.02,0.01l-0.2,0.11
							c-0.01,0.01-0.03,0.01-0.04,0.02l-62.28,34.59l-13.6-62.62L445.91,733.67c-28.68-15.84-51.93-54.37-51.93-86.06
							C393.98,615.92,417.23,603.08,445.91,618.92z"/>
						
							<linearGradient id="SVGID_00000052794487922870438590000018035103728196759188_" gradientUnits="userSpaceOnUse" x1="847.2518" y1="752.3512" x2="1217.7415" y2="752.3512" gradientTransform="matrix(-1 0 0 1 1563.5524 0)">
							<stop  offset="0" style="stop-color:#515DA7"/>
							<stop  offset="0.1601" style="stop-color:#5561A9"/>
							<stop  offset="0.3488" style="stop-color:#626BB0"/>
							<stop  offset="0.552" style="stop-color:#777CBB"/>
							<stop  offset="0.7655" style="stop-color:#9496CA"/>
							<stop  offset="0.9849" style="stop-color:#BAB9DE"/>
							<stop  offset="1" style="stop-color:#BCBCDF"/>
						</linearGradient>
						<path style="fill:url(#SVGID_00000052794487922870438590000018035103728196759188_);" d="M345.81,650.68l63.1-35.08l0,0.01
							c9.42-5.37,22.51-4.69,37,3.31c4.73,2.61,9.31,5.86,13.66,9.58l25.42-14.06l0,0.01c13.97-9.4,34.19-8.99,56.69,3.44
							c28.46,15.73,53.27,46.66,66.4,79.43c4.35,0.13,9.19,1.5,14.32,4.34c18.58,10.26,33.63,35.22,33.63,55.74
							c0,0.44-0.05,0.85-0.06,1.28c5.3,0.35,11.15,2.14,17.31,5.55c23.76,13.13,43.02,45.05,43.02,71.3
							c0,13.01-4.74,22.17-12.4,26.52l0.02,0.01l-0.2,0.11c-0.01,0.01-0.03,0.01-0.04,0.02l-62.28,34.59l-13.6-62.62L445.91,733.67
							c-23.25-12.84-42.92-40.6-49.54-67.52L345.81,650.68z"/>
						
							<linearGradient id="SVGID_00000083811928817228565460000015822945408127746985_" gradientUnits="userSpaceOnUse" x1="825.7904" y1="629.645" x2="1197.9834" y2="629.645" gradientTransform="matrix(-0.866 -0.5 0 1.1547 1368.9563 524.7959)">
							<stop  offset="0" style="stop-color:#C1BEE0"/>
							<stop  offset="0.276" style="stop-color:#C5C2E3"/>
							<stop  offset="0.6014" style="stop-color:#D1CFE9"/>
							<stop  offset="0.9504" style="stop-color:#E6E5F4"/>
							<stop  offset="1" style="stop-color:#E9E8F6"/>
						</linearGradient>
						<path style="fill:url(#SVGID_00000083811928817228565460000015822945408127746985_);" d="M383.43,653.63
							c8.16,4.51,15.88,10.86,22.75,18.36c9.53-29.31,38.61-38.4,73.02-19.39c28.46,15.73,53.27,46.66,66.4,79.43
							c4.35,0.13,9.19,1.5,14.32,4.34c18.58,10.26,33.63,35.22,33.63,55.74c0,0.44-0.05,0.85-0.06,1.28
							c5.3,0.35,11.15,2.14,17.31,5.55c23.76,13.13,43.02,45.05,43.02,71.3c0,26.25-19.26,36.89-43.02,23.77L383.43,768.37
							c-28.68-15.84-51.93-54.38-51.93-86.06C331.5,650.63,354.75,637.78,383.43,653.63z"/>
						<g>
							<path class="st1" d="M404.09,673.18c-6.87-7.5-14.59-13.85-22.75-18.36c-14.02-7.75-26.74-8.62-36.08-3.8
								c9.49-6.12,23.07-5.73,38.16,2.6c7.69,4.25,14.97,10.14,21.54,17.08C404.66,671.52,404.37,672.34,404.09,673.18z"/>
							<path class="st1" d="M651.74,871.43c0-26.25-19.26-58.17-43.02-71.3c-6.16-3.4-12.01-5.2-17.31-5.55
								c0.01-0.43,0.06-0.83,0.06-1.28c0-20.52-15.06-45.48-33.63-55.74c-5.13-2.83-9.97-4.2-14.32-4.34
								c-13.12-32.77-37.93-63.7-66.4-79.43c-20.81-11.5-39.66-12.7-53.43-5.38c13.92-8.61,33.63-7.9,55.51,4.19
								c28.46,15.73,53.27,46.66,66.4,79.43c4.35,0.13,9.19,1.5,14.32,4.34c18.58,10.26,33.63,35.22,33.63,55.74
								c0,0.44-0.05,0.85-0.06,1.28c5.3,0.35,11.15,2.14,17.31,5.55c23.76,13.13,43.02,45.05,43.02,71.3
								c0,13.48-5.09,22.83-13.25,26.97C647.51,892.6,651.74,883.73,651.74,871.43z"/>
						</g>
					</g>
				</g>
				
					<linearGradient id="SVGID_00000103972334124030652780000009439858003340374934_" gradientUnits="userSpaceOnUse" x1="730.3383" y1="960.999" x2="888.9316" y2="960.999" gradientTransform="matrix(-1 0 0 1 1563.5524 0)">
					<stop  offset="0" style="stop-color:#515DA7"/>
					<stop  offset="0.1797" style="stop-color:#547DB7"/>
					<stop  offset="0.3623" style="stop-color:#5A98C1"/>
					<stop  offset="0.5401" style="stop-color:#61ACC7"/>
					<stop  offset="0.7094" style="stop-color:#67B9CA"/>
					<stop  offset="0.8667" style="stop-color:#6BC2CB"/>
					<stop  offset="1" style="stop-color:#6DC4CB"/>
				</linearGradient>
				<polygon style="fill:url(#SVGID_00000103972334124030652780000009439858003340374934_);" points="827.67,1007.57 833.21,1004 
					677.74,914.43 674.62,919.4 				"/>
			</g>
			
				<linearGradient id="SVGID_00000108311495493702448730000007031313436199658420_" gradientUnits="userSpaceOnUse" x1="369.8088" y1="909.296" x2="572.4434" y2="909.296" gradientTransform="matrix(-1 0 0 1 1563.5524 0)">
				<stop  offset="0" style="stop-color:#6DC4CB"/>
				<stop  offset="0.1333" style="stop-color:#6BC2CB"/>
				<stop  offset="0.2906" style="stop-color:#67B9CA"/>
				<stop  offset="0.4599" style="stop-color:#61ACC7"/>
				<stop  offset="0.6377" style="stop-color:#5A98C1"/>
				<stop  offset="0.8203" style="stop-color:#547DB7"/>
				<stop  offset="1" style="stop-color:#515DA7"/>
			</linearGradient>
			<path style="fill:url(#SVGID_00000108311495493702448730000007031313436199658420_);" d="M1053.51,1002.55
				c-1.09,0-2.15-0.56-2.71-1.54c-0.81-1.43-0.26-3.21,1.24-3.99l132.36-68.73L992.64,821.52c-1.47-0.82-1.96-2.62-1.11-4.02
				c0.86-1.4,2.74-1.88,4.2-1.06l196.49,109.41c0.96,0.54,1.55,1.53,1.53,2.59c-0.01,1.06-0.63,2.04-1.61,2.54l-137.17,71.23
				C1054.5,1002.44,1054,1002.55,1053.51,1002.55z"/>
			<g>
				<g>
					<g>
						
							<linearGradient id="SVGID_00000018922643244359248720000004996164360584291712_" gradientUnits="userSpaceOnUse" x1="719.5953" y1="1064.6427" x2="1174.2798" y2="1064.6427">
							<stop  offset="0" style="stop-color:#6DC4CB"/>
							<stop  offset="0.1333" style="stop-color:#6BC2CB"/>
							<stop  offset="0.2906" style="stop-color:#67B9CA"/>
							<stop  offset="0.4599" style="stop-color:#61ACC7"/>
							<stop  offset="0.6377" style="stop-color:#5A98C1"/>
							<stop  offset="0.8203" style="stop-color:#547DB7"/>
							<stop  offset="1" style="stop-color:#515DA7"/>
						</linearGradient>
						<path style="fill:url(#SVGID_00000018922643244359248720000004996164360584291712_);" d="M946.93,1191.49
							c-0.53,0-1.06-0.13-1.54-0.39l-224.27-123.9c-0.95-0.53-1.54-1.5-1.54-2.55c0-1.05,0.59-2.02,1.54-2.55L945.4,938.19
							c0.95-0.52,2.12-0.52,3.07,0l224.27,123.9c0.95,0.53,1.54,1.5,1.54,2.55c0,1.05-0.58,2.02-1.54,2.55L948.47,1191.1
							C948,1191.36,947.46,1191.49,946.93,1191.49z M728.82,1064.64l218.12,120.51l218.13-120.51L946.94,944.14L728.82,1064.64z"/>
						
							<linearGradient id="SVGID_00000065761715961865010890000003092392917677506996_" gradientUnits="userSpaceOnUse" x1="574.7988" y1="1131.5614" x2="658.43" y2="997.7235" gradientTransform="matrix(-1 0 0 1 1563.5524 0)">
							<stop  offset="0" style="stop-color:#6DC4CB"/>
							<stop  offset="0.1333" style="stop-color:#6BC2CB"/>
							<stop  offset="0.2906" style="stop-color:#67B9CA"/>
							<stop  offset="0.4599" style="stop-color:#61ACC7"/>
							<stop  offset="0.6377" style="stop-color:#5A98C1"/>
							<stop  offset="0.8203" style="stop-color:#547DB7"/>
							<stop  offset="1" style="stop-color:#515DA7"/>
						</linearGradient>
						<polygon style="fill:url(#SVGID_00000065761715961865010890000003092392917677506996_);" points="946.94,1146.91 
							1095.85,1064.64 946.94,982.37 798.03,1064.64 						"/>
					</g>
					<g>
						<path class="st31" d="M908.92,1018.36c0,0-2.55,2.42-5.21,5.29s-10.02,6.76-13.12,8.5s-17.33,11.54-20.51,21.45
							c-3.18,9.91,6.77,11.47,17.03,9.97c10.26-1.49,20.03-10.28,22.89-13.47c2.86-3.19,12.72-10.35,25.41-16.26
							c12.69-5.91,5.33-14.43,5.33-14.43L908.92,1018.36z"/>
						<path class="st31" d="M1001.19,1050.21c0,0,1.95,4.54,2.38,10.32c0.44,5.78,0.96,18.31,1.17,21.98
							c0.22,3.67,0.11,12.62-6.84,21.04c-6.95,8.41-10.52,11.72-19.38,8.13c-8.86-3.58-8.28-17.95-6.51-25.3
							c1.77-7.35,3.67-23.85,3.56-25.59c-0.12-1.74,0.59-2.83,0.59-2.83L1001.19,1050.21z"/>
						<path class="st8" d="M882.45,848.12c0,0,0.18,65.93,15.31,101.29c0,0,10.69,31.07,11.26,67.75c0,0-2.82,6.24,0.81,11.46
							c3.63,5.22,27.07,10.47,31.39-6.28c4.33-16.76,3.65-48.32-0.29-61.56c-3.94-13.25,2.8-49.34,2.8-49.34s6.34,4.09,14.1,30.32
							c7.76,26.23,13.72,36.31,16.43,43.57c2.72,7.26,4.24,51.44,1.84,72.94c0,0,19.01,3.05,24.75-5.55
							c5.74-8.6,8.76-53.7,7.73-68.12c-1.03-14.43-6.12-60.68-4.88-74.93c1.23-14.25,4.64-25.76,1.6-40.09
							c-3.04-14.33-102.88-48.38-102.88-48.38L882.45,848.12z"/>
						<path class="st31" d="M1003.73,909.66c1.23-14.25,4.64-25.76,1.6-40.09c-1.14-5.39-15.97-13.56-34.02-21.66
							c-30.74-3.42-69.73-7.48-72.43-7.15c-2.44,0.3-8.87,2.46-14.2,4.36l-2.23,3c0,0,0.01,4.01,0.25,10.56
							c7.13,2.23,21.01,0.43,21.01,0.43c1.83,4.67,13.4,21.39,28.15,28.83c14.75,7.45,58.5,6.05,60.94,8.81
							c2.44,2.76,1.99,38.84,1.59,43.42c-0.4,4.58,3.25,33.56,6.65,59.19c3.35,25.22-3.53,55.6-3.76,56.57
							c1.43-0.83,2.69-1.87,3.59-3.22c5.74-8.6,8.76-53.7,7.73-68.12C1007.59,970.16,1002.5,923.9,1003.73,909.66z"/>
						<path class="st10" d="M921.73,633.42c0,0-22.46,4.34-30.02,5.85c-1.25,0.25-2.28,1.07-2.78,2.19
							c-2.3,5.2-8.17,21.4-4.69,45.33c4.28,29.41,2.17,49.1,2.17,49.1l-11.66,51.2c0,0-14.26,48.69-13.17,50.06
							c1.09,1.37,29.32,23.01,38.4,20.27c9.07-2.74,6.24-7.68,6.24-7.68s6.37,35.68,38.63,36.11c32.26,0.43,58.61,1.15,64.41-11.2
							c5.8-12.35,0.19-64.96-4.96-85.86c-5.15-20.9-17.59-62.62-17.59-62.62l48.54-48.92l-39.61-30.47c0,0-9.2-17.38-13.11-19.65
							c-3.91-2.27-6.03-0.48-6.03-0.48L921.73,633.42z"/>
						<g>
							
								<linearGradient id="SVGID_00000087386283860065673680000002477987110372906158_" gradientUnits="userSpaceOnUse" x1="1277.8444" y1="868.4152" x2="1320.7476" y2="868.4152" gradientTransform="matrix(0.9966 0.0826 -0.0826 0.9966 -339.9738 -124.7183)">
								<stop  offset="0" style="stop-color:#515DA7"/>
								<stop  offset="0.1797" style="stop-color:#547DB7"/>
								<stop  offset="0.3623" style="stop-color:#5A98C1"/>
								<stop  offset="0.5401" style="stop-color:#61ACC7"/>
								<stop  offset="0.7094" style="stop-color:#67B9CA"/>
								<stop  offset="0.8667" style="stop-color:#6BC2CB"/>
								<stop  offset="1" style="stop-color:#6DC4CB"/>
							</linearGradient>
							<path style="fill:url(#SVGID_00000087386283860065673680000002477987110372906158_);" d="M900.82,846.13
								c-0.02,1.78-1.17,4.41-7.02,6.18c-6.32,1.91-21.43-7.39-31.32-14.34c4.92,4.12,29.2,21.97,37.49,19.47
								c1.8-0.54,3.12-1.18,4.1-1.84C902.33,851.6,901.33,848.15,900.82,846.13z"/>
							
								<linearGradient id="SVGID_00000159471445293208213590000015565075331890368672_" gradientUnits="userSpaceOnUse" x1="1338.448" y1="881.4095" x2="1428.3892" y2="881.4095" gradientTransform="matrix(0.9966 0.0826 -0.0826 0.9966 -339.9738 -124.7183)">
								<stop  offset="0" style="stop-color:#515DA7"/>
								<stop  offset="0.1797" style="stop-color:#547DB7"/>
								<stop  offset="0.3623" style="stop-color:#5A98C1"/>
								<stop  offset="0.5401" style="stop-color:#61ACC7"/>
								<stop  offset="0.7094" style="stop-color:#67B9CA"/>
								<stop  offset="0.8667" style="stop-color:#6BC2CB"/>
								<stop  offset="1" style="stop-color:#6DC4CB"/>
							</linearGradient>
							<path style="fill:url(#SVGID_00000159471445293208213590000015565075331890368672_);" d="M1009.13,870.49
								c-6.12,13.03-33.93,12.27-67.97,11.82c-8.66-0.11-15.55-2.64-21.01-6.34c5.75,5.51,13.72,9.74,24.7,9.89
								c32.26,0.43,58.61,1.15,64.41-11.2c1.9-4.05,2.57-12.46,2.44-22.64C1011.56,860.28,1010.79,866.96,1009.13,870.49z"/>
						</g>
						<path class="st34" d="M981.67,626.69c0,0,8,9.75-4.2,22.35c-7.51,7.76-20.52,24.57-31.69,42.09
							c-6.98,10.94-13.31,16.71-17.06,26.16c0,0-0.2-11.34-0.21-28.84c-0.02-16.52,0.2-33.68,1.08-37.98
							C931.4,641.61,972.66,622.15,981.67,626.69z"/>
						<path class="st35" d="M950.07,654.68c0,0-4.29,2.41-5.74,2.17c-1.45-0.24-6.02-4.7-6.02-4.7s-11.7-0.48-12.86-5.31
							c-1.15-4.83-1.87-9.69-2.99-12.21c-1.12-2.52-5.86-14.62-5.77-19.48c0.09-4.86,0.5-13.54-1.57-18.18
							c-2.07-4.65-3.84-50.7,42.53-48.3c46.37,2.4,30.76,48.16,30.76,48.16s3.35,1.46,1.15,7.35c-2.21,5.89-2.68,6.49-3.8,9.41
							s-1.69,4.8-4.7,7.12l-0.91,5.45c0,0,1.99,8.4-3.99,16.38C970.18,650.52,950.07,654.68,950.07,654.68z"/>
						<path class="st8" d="M890.43,639.77c0,0-4.97,0.59-22.02,38.85c-9.52,21.35-23.92,43.36-27.27,59.31
							c-3.35,15.96-2.16,33.13,1.12,34.41c3.16,1.24,60.3,23.26,78.19,30.21c0.99,0.38,2.09-0.19,2.3-1.19l5.67-26.54l-35.45-14.08
							c0,0-6.61-8.14-12.94-11.28c0,0,7.5-12.48,7.14-15.95c-0.37-3.47,1.66-39.19-2.16-53.84
							C881.18,665.03,890.43,639.77,890.43,639.77z"/>
						<path class="st35" d="M908.74,742.4c0,0-4.85-3.29-6.05-3.77c-1.21-0.48-7.74-2.79-8.99-3.36c-0.92-0.42-4.77-0.21-6.7-0.07
							c-0.7,0.05-1.32,0.42-1.67,1c-1.59,2.67-6.04,10.43-5.64,13.45c0,0,11.73,7.49,12.98,10.73l1.89,0.44
							C894.56,760.83,902.97,744.64,908.74,742.4z"/>
						<path class="st8" d="M1004.3,788.79c-1.24-5.03-2.9-11.27-4.71-17.83l-73.27,28.01c0,0,21.04,26.05,59.11,25.31
							c10.41-0.2,18.09-3.61,23.74-6.56C1007.79,806.33,1006.02,795.79,1004.3,788.79z"/>
						<path class="st8" d="M1035.25,677.26c0,0-19.18,2.06-35.24,25.12c-16.05,23.06-28.02,49.9-28.02,49.9l-0.61,3.04
							c-1.6,7.93-10.59,12.29-18.21,8.81c-16.13-7.36-40.01-18.47-44.43-21.74c0,0-14.64,7.3-19.05,25.26
							c-3.52,14.32-2.72,14.39-2.72,14.39s63.63,30.28,88.5,30.59c24.87,0.31,58.44-77.16,62.33-93.25
							C1041.69,703.3,1046.07,682.09,1035.25,677.26z"/>
						<path class="st36" d="M1035.25,677.26c0,0-19.18,2.06-35.24,25.12c-16.05,23.06-28.02,49.9-28.02,49.9l-0.61,3.04
							c-1.6,7.93-10.59,12.29-18.21,8.81c-16.13-7.36-40.01-18.47-44.43-21.74c0,0-14.64,7.3-19.05,25.26
							c-3.52,14.32-2.72,14.39-2.72,14.39s63.63,30.28,88.5,30.59c24.87,0.31,58.44-77.16,62.33-93.25
							C1041.69,703.3,1046.07,682.09,1035.25,677.26z"/>
						<path class="st10" d="M962.32,768c0,0,7.93,7.46,11.57,3.56c3.64-3.89,2.61-4.36,2.61-4.36s7.31,0.11,8.31-4.25
							c1-4.36,4.54-1.96,4.88-6.83c0.33-4.88-5.81-4.02-5.81-4.02L962.32,768z"/>
						<path class="st35" d="M952.61,763.88c0,0,2.29-1.94,5.23-4.2c2.94-2.26,7.85-11.8,8.66-12.63c0.81-0.83,10.71-7.73,15.39-7.74
							c4.69-0.01,1.08,4.92-0.02,5.6c-1.1,0.68-5.73,2.75-5.73,2.75s-4.8,3.67-5.35,4.21c-0.55,0.54,13.1-0.59,15.23,0.74
							c2.13,1.32,1.54,4.64-0.01,5.51c-1.55,0.87-2.71,0.81-2.71,0.81s1.43,3.96-2.7,5.68c-4.13,1.72-5.05,0.69-5.05,0.69
							s-0.53,6.76-7.24,5.26L952.61,763.88z"/>
						<path class="st37" d="M914.69,573.43c0,0-6.54,18.31,9.54,13.44c16.08-4.87,30.73-13.31,35.65-9.85
							c3.75,2.64,3.37,10.44,2.97,14.02c-0.13,1.22,0.17,2.44,0.87,3.46l4.55,6.69c0.51,0.75,0.81,1.63,0.85,2.53l0.22,4.58
							c0.05,1.15,1,2.09,2.2,2.18l1.09,0.09c1.21,0.1,2.31-0.69,2.55-1.84l1.4-6.69c0,0,3.99-8.95,11.83-5.21
							c0,0,5.48-6.69,4.1-21.32c-1.38-14.63-7.82-29.95-37.66-33.09C925.01,539.28,914.69,573.43,914.69,573.43z"/>
						<path class="st38" d="M957.88,671.12l-4.39-3.43c0,0-4.22,3.19-5.93,6.64c-1.7,3.45-0.37,14.58-0.37,14.58l-1.42,2.21
							l-1.6-2.97l-1.08-13.15c0,0,1.77-9.66,1.93-9.9c0.16-0.24,8.61,1.07,8.61,1.07S956.51,668.39,957.88,671.12z"/>
						<path class="st38" d="M936.71,657.56c0,0-4.79,0.19-6.99,1.85c0,0,5.01,0.36,5.8,0.46
							C936.32,659.97,936.71,657.56,936.71,657.56z"/>
						<path class="st8" d="M945.79,658.81l7.84,7.37c0,0-7.12,2.94-9.25,8.91c0,0-8.77,1.35-9.49-1.69
							c-0.72-3.05,0.3-10.65-0.66-14.05C933.28,655.93,945.79,658.81,945.79,658.81z"/>
						<path class="st8" d="M935.21,673.23c0,0-1.65,6.25-3.35,8.81c-1.7,2.55-3.44,5.42-3.44,5.42l-0.76,36.85
							c0,0,14.89-27.6,18.11-33.18c0,0-0.12-13.47-1.39-16.04C943.11,672.51,935.21,673.23,935.21,673.23z"/>
						<path class="st39" d="M974.65,619.68c-9.97,25.46-36.34,32.47-36.34,32.47s4.57,4.46,6.02,4.7c1.45,0.24,5.74-2.17,5.74-2.17
							s20.1-4.17,26.08-12.15c5.98-7.98,3.99-16.38,3.99-16.38l0.91-5.45C976.87,621.91,974.65,619.68,974.65,619.68z"/>
						<path class="st8" d="M995.16,650.26c0,0-3.99,12.04-4.47,12.48s-9.22-0.73-9.22-0.73l4.05,7.81c0,0-45.23,44.17-54.99,68.27
							c0,0,21.65-30.33,59.29-66.27l-5-7.64l8.96,1.9L995.16,650.26z"/>
						<path class="st8" d="M923.07,637.83l-2.4,2.5l2.68,2.52l-8.33,6.85c0,0-3.77,49.39,5.32,82.39c0,0-12.73-30.37-8.27-83.81
							l8.96-5.51l-2.81-2.78L923.07,637.83z"/>
						<path class="st31" d="M943.75,911.43c0,0,0.1,0.07,0.3,0.24l-11.11-11.9c5.08,7.23-1.83,39.64-2.65,47.08
							c-0.82,7.44,5.5,22.99,7.55,41.08c2.05,18.07-3.77,43.65-3.79,43.73c3.31-1.73,5.98-4.68,7.19-9.33
							c4.33-16.76,3.65-48.32-0.29-61.56C937.01,947.52,943.75,911.43,943.75,911.43z"/>
						
							<linearGradient id="SVGID_00000132770606429048134470000009259168364084609950_" gradientUnits="userSpaceOnUse" x1="1297.4965" y1="772.2329" x2="1443.9724" y2="772.2329" gradientTransform="matrix(0.9966 0.0826 -0.0826 0.9966 -339.9738 -124.7183)">
							<stop  offset="0" style="stop-color:#515DA7"/>
							<stop  offset="0.1797" style="stop-color:#547DB7"/>
							<stop  offset="0.3623" style="stop-color:#5A98C1"/>
							<stop  offset="0.5401" style="stop-color:#61ACC7"/>
							<stop  offset="0.7094" style="stop-color:#67B9CA"/>
							<stop  offset="0.8667" style="stop-color:#6BC2CB"/>
							<stop  offset="1" style="stop-color:#6DC4CB"/>
						</linearGradient>
						<path style="fill:url(#SVGID_00000132770606429048134470000009259168364084609950_);" d="M975.47,812.63
							c24.87,0.31,58.44-77.16,62.33-93.25c0.65-2.68,1.31-5.51,1.91-8.38c-0.1,0.23-6.97,16.97-13.58,31.79
							c-6.65,14.93-41.06,59.84-58.11,62.41c-15.38,2.32-69.82-23.59-80.36-28.7c-1.11,5.47-0.7,5.53-0.7,5.53
							S950.6,812.33,975.47,812.63z"/>
						<path class="st41" d="M972.63,610.56c1.21,0.1,2.31-0.69,2.55-1.84l1.4-6.69c0,0,3.99-8.95,11.83-5.21
							c0,0,5.17-6.36,4.18-20.17c-9.15,12.46-28.87,17.84-28.87,17.84l4.55,6.69c0.51,0.75,0.81,1.63,0.85,2.53l0.22,4.58
							c0.05,1.15,1,2.09,2.2,2.18L972.63,610.56z"/>
					</g>
				</g>
			</g>
		</g>
		<path class="st8" d="M760.2,275.93l144.09,79.61c6.7,3.7,12.13,13.63,12.13,22.18v131.5c0,8.55-5.43,12.48-12.13,8.78
			l-170.18-94.02L760.2,275.93z"/>
		<g>
			
				<linearGradient id="SVGID_00000133496159848403103880000008674484988277808060_" gradientUnits="userSpaceOnUse" x1="699.231" y1="428.9623" x2="937.053" y2="229.406" gradientTransform="matrix(-1 0 0 1 1563.5524 0)">
				<stop  offset="0" style="stop-color:#515DA7"/>
				<stop  offset="0.1601" style="stop-color:#5561A9"/>
				<stop  offset="0.3488" style="stop-color:#626BB0"/>
				<stop  offset="0.552" style="stop-color:#777CBB"/>
				<stop  offset="0.7655" style="stop-color:#9496CA"/>
				<stop  offset="0.9849" style="stop-color:#BAB9DE"/>
				<stop  offset="1" style="stop-color:#BCBCDF"/>
			</linearGradient>
			<path style="fill:url(#SVGID_00000133496159848403103880000008674484988277808060_);" d="M626.41,200.95l7.02-4.8v0
				c2.2-1.6,5.24-1.67,8.6,0.19L887.2,331.8c6.7,3.7,12.13,13.63,12.13,22.18v131.5c0,4.47-1.5,7.66-3.87,9.18l0.02,0.01l-7.29,4.98
				l-0.4-5.1c-0.2-0.1-0.39-0.18-0.59-0.29L642.03,358.8c-6.7-3.7-12.13-13.63-12.13-22.18v-131.5c0-1.26,0.13-2.41,0.35-3.46
				L626.41,200.95z"/>
			
				<linearGradient id="SVGID_00000113335706285650153580000011530050933792054702_" gradientUnits="userSpaceOnUse" x1="692.0864" y1="369.4576" x2="719.0847" y2="346.8033" gradientTransform="matrix(-1 0 0 1 1563.5524 0)">
				<stop  offset="0" style="stop-color:#C1BEE0"/>
				<stop  offset="0.276" style="stop-color:#C5C2E3"/>
				<stop  offset="0.6014" style="stop-color:#D1CFE9"/>
				<stop  offset="0.9504" style="stop-color:#E6E5F4"/>
				<stop  offset="1" style="stop-color:#E9E8F6"/>
			</linearGradient>
			<path style="fill:url(#SVGID_00000113335706285650153580000011530050933792054702_);" d="M898.7,348.72l-64.71,35.75l-16.3-9
				l73.5-40.61C894.72,338.39,897.51,343.53,898.7,348.72z"/>
			
				<linearGradient id="SVGID_00000081632156302482721600000011530082762829315463_" gradientUnits="userSpaceOnUse" x1="874.6067" y1="749.7106" x2="874.6067" y2="603.7256" gradientTransform="matrix(-0.866 -0.5 0 1.1547 1514.7078 6.199)">
				<stop  offset="0" style="stop-color:#C1BEE0"/>
				<stop  offset="0.276" style="stop-color:#C5C2E3"/>
				<stop  offset="0.6014" style="stop-color:#D1CFE9"/>
				<stop  offset="0.9504" style="stop-color:#E6E5F4"/>
				<stop  offset="1" style="stop-color:#E9E8F6"/>
			</linearGradient>
			<path style="fill:url(#SVGID_00000081632156302482721600000011530082762829315463_);" d="M634.71,363.81l245.18,135.46
				c6.7,3.7,12.13-0.23,12.13-8.78v-131.5c0-8.55-5.43-18.48-12.13-22.18L634.71,201.34c-6.7-3.7-12.13,0.23-12.13,8.78v131.5
				C622.58,350.17,628.01,360.1,634.71,363.81z"/>
			<path class="st1" d="M890.69,491.16v-131.5c0-8.55-5.43-18.48-12.13-22.18L633.38,202.02c-2.64-1.46-5.08-1.72-7.07-0.99
				c2.18-1.47,5.13-1.49,8.4,0.32L879.89,336.8c6.7,3.7,12.13,13.63,12.13,22.18v131.5c0,5.18-2,8.65-5.07,9.77
				C889.25,498.7,890.69,495.55,890.69,491.16z"/>
			<path class="st45" d="M657.4,281l200.1,110.45c1.55,0.85,2.86,1.31,3.76-0.02c0.14-0.21,0.07-0.51,0.07-0.79v-29.04
				c0-2.26-1.43-4.88-3.2-5.85L656.47,244.33c-0.16-0.09-0.3-0.24-0.46-0.21c-1.51,0.24-1.57,1.57-1.57,3.63l-0.49,27.86
				C653.95,277.86,655.63,280.02,657.4,281z"/>
			<path class="st45" d="M656.98,344.15L857.42,454.7c1.54,0.85,3.54,1.75,3.84,0.06c0.04-0.25,0.07-0.51,0.07-0.8v-29.04
				c0-2.26-1.43-4.88-3.2-5.85L656.47,307.65c-0.16-0.09-0.31-0.16-0.46-0.21c-1.55-0.57-1.96,1.35-1.96,3.4l-0.1,27.51
				C653.95,340.61,655.21,343.18,656.98,344.15z"/>
			<path class="st1" d="M656,244.13c-0.04,0.24-0.07,0.51-0.07,0.79v29.04c0,2.26,1.43,4.88,3.2,5.85l201.65,111.41
				c0.16,0.09,0.32,0.14,0.47,0.2c-0.3,1.69-1.59,2.38-3.14,1.53L656.47,281.54c-1.77-0.98-3.2-3.6-3.2-5.85v-29.04
				C653.27,244.59,654.46,243.57,656,244.13z"/>
			<path class="st1" d="M656,307.45c-0.04,0.24-0.07,0.51-0.07,0.79v29.04c0,2.26,1.43,4.88,3.2,5.85l201.65,111.41
				c0.16,0.09,0.32,0.14,0.47,0.2c-0.3,1.69-1.59,2.38-3.14,1.53L656.47,344.87c-1.77-0.98-3.2-3.6-3.2-5.85v-29.04
				C653.27,307.92,654.46,306.89,656,307.45z"/>
			<g>
				<g>
					<path class="st1" d="M803.69,348.16l-2.47,4.47l-4.69-5.64l3.56-3.51l-5.33-5.2l1.74-4.31l4.81,5.65l-0.65-6.74l5.9,3.26
						l-0.62,6.01l4.82-0.28l1.78,6.21l-5.26-0.66l3.53,7.49l-4.61,0.47L803.69,348.16z"/>
				</g>
				<g>
					<path class="st1" d="M780.51,335.36l-2.47,4.47l-4.69-5.64l3.56-3.51l-5.34-5.2l1.74-4.31l4.81,5.65l-0.65-6.74l5.9,3.26
						l-0.62,6.01l4.82-0.28l1.78,6.21l-5.26-0.66l3.53,7.49l-4.61,0.47L780.51,335.36z"/>
				</g>
				<g>
					<path class="st1" d="M757.33,322.55l-2.47,4.47l-4.69-5.64l3.56-3.51l-5.34-5.2l1.74-4.31l4.81,5.65l-0.65-6.74l5.9,3.26
						l-0.62,6.01l4.82-0.28l1.78,6.21l-5.26-0.66l3.53,7.49l-4.61,0.47L757.33,322.55z"/>
				</g>
				<g>
					<path class="st1" d="M734.15,309.75l-2.47,4.47l-4.69-5.64l3.56-3.51l-5.34-5.2l1.74-4.31l4.81,5.65l-0.65-6.74l5.9,3.26
						l-0.62,6.01l4.82-0.28l1.78,6.21l-5.26-0.66l3.53,7.49l-4.61,0.47L734.15,309.75z"/>
				</g>
				<g>
					<path class="st1" d="M710.98,296.94l-2.47,4.47l-4.69-5.64l3.56-3.51l-5.33-5.2l1.74-4.31l4.81,5.65l-0.65-6.74l5.9,3.26
						l-0.62,6.01l4.82-0.28l1.78,6.21l-5.26-0.66l3.53,7.49l-4.61,0.47L710.98,296.94z"/>
				</g>
			</g>
			<g>
				<g>
					<path class="st1" d="M803.69,411.49l-2.47,4.47l-4.69-5.64l3.56-3.51l-5.33-5.2l1.74-4.31l4.81,5.65l-0.65-6.74l5.9,3.26
						l-0.62,6.01l4.82-0.28l1.78,6.21l-5.26-0.66l3.53,7.49l-4.61,0.47L803.69,411.49z"/>
				</g>
				<g>
					<path class="st1" d="M780.51,398.68l-2.47,4.47l-4.69-5.64l3.56-3.51l-5.34-5.2l1.74-4.31l4.81,5.65l-0.65-6.74l5.9,3.26
						l-0.62,6.01l4.82-0.28l1.78,6.21l-5.26-0.66l3.53,7.49l-4.61,0.47L780.51,398.68z"/>
				</g>
				<g>
					<path class="st1" d="M757.33,385.88l-2.47,4.47l-4.69-5.64l3.56-3.51l-5.34-5.2l1.74-4.31l4.81,5.65l-0.65-6.74l5.9,3.26
						l-0.62,6.01l4.82-0.28l1.78,6.21l-5.26-0.66l3.53,7.49l-4.61,0.47L757.33,385.88z"/>
				</g>
				<g>
					<path class="st1" d="M734.15,373.07l-2.47,4.47L727,371.9l3.56-3.51l-5.34-5.2l1.74-4.31l4.81,5.65l-0.65-6.74l5.9,3.26
						l-0.62,6.01l4.82-0.28l1.78,6.21l-5.26-0.66l3.53,7.49l-4.61,0.47L734.15,373.07z"/>
				</g>
				<g>
					<path class="st1" d="M710.98,360.26l-2.47,4.47l-4.69-5.64l3.56-3.51l-5.33-5.2l1.74-4.31l4.81,5.65l-0.65-6.74l5.9,3.26
						l-0.62,6.01l4.82-0.28l1.78,6.21l-5.26-0.66l3.53,7.49l-4.61,0.47L710.98,360.26z"/>
				</g>
			</g>
		</g>
	</g>
	<polygon class="st46" points="702.42,1006.48 671.85,1023.38 641.26,1006.48 671.84,989.59 	"/>
	<polygon class="st47" points="804.32,875.13 773.75,892.02 743.16,875.13 773.74,858.23 	"/>
	<polygon class="st47" points="668.47,426.66 637.89,443.55 607.31,426.66 637.89,409.76 	"/>
	<polygon class="st46" points="838.29,931.43 807.71,948.32 777.13,931.43 807.71,914.53 	"/>
	<polygon class="st46" points="1211.88,837.61 1181.3,854.5 1150.72,837.61 1181.3,820.71 	"/>
	<polygon class="st46" points="491.87,573.43 461.29,590.32 430.71,573.43 461.29,556.53 	"/>
	<polygon class="st46" points="1232.37,572.97 1201.79,589.86 1171.21,572.97 1201.79,556.07 	"/>
	<polygon class="st47" points="291.48,603.05 260.9,619.94 230.32,603.05 260.9,586.15 	"/>
	<g>
		
			<linearGradient id="SVGID_00000031896959112050764210000013668542784394864780_" gradientUnits="userSpaceOnUse" x1="266.8515" y1="461.9184" x2="535.6964" y2="461.9184">
			<stop  offset="0" style="stop-color:#6DC4CB"/>
			<stop  offset="0.1333" style="stop-color:#6BC2CB"/>
			<stop  offset="0.2906" style="stop-color:#67B9CA"/>
			<stop  offset="0.4599" style="stop-color:#61ACC7"/>
			<stop  offset="0.6377" style="stop-color:#5A98C1"/>
			<stop  offset="0.8203" style="stop-color:#547DB7"/>
			<stop  offset="1" style="stop-color:#515DA7"/>
		</linearGradient>
		<path style="fill:url(#SVGID_00000031896959112050764210000013668542784394864780_);" d="M401.28,538.45
			c-0.98,0-1.94-0.25-2.79-0.71l-128.84-71.18c-1.73-0.96-2.8-2.73-2.8-4.64c0-1.9,1.07-3.68,2.79-4.63l128.83-71.18
			c1.72-0.95,3.87-0.95,5.59,0l128.83,71.18c1.72,0.95,2.8,2.73,2.8,4.64c0,1.91-1.07,3.68-2.8,4.64l-128.82,71.18
			C403.22,538.2,402.25,538.45,401.28,538.45z M401.55,532.64h0.03H401.55z M273.55,461.92l127.73,70.57l127.72-70.56l-127.72-70.57
			L273.55,461.92z"/>
		
			<linearGradient id="SVGID_00000116918371341245741070000003749342186889078708_" gradientUnits="userSpaceOnUse" x1="285.212" y1="456.976" x2="450.6161" y2="456.976">
			<stop  offset="0.2473" style="stop-color:#515DA7"/>
			<stop  offset="0.408" style="stop-color:#636CB1"/>
			<stop  offset="0.7379" style="stop-color:#9395CA"/>
			<stop  offset="1" style="stop-color:#BCBCDF"/>
		</linearGradient>
		<polygon style="fill:url(#SVGID_00000116918371341245741070000003749342186889078708_);" points="517.34,436.12 517.34,413.71 
			401.27,474.99 285.21,413.71 285.21,436.12 401.28,500.24 		"/>
		
			<linearGradient id="SVGID_00000154421801131406676230000001178901085288943518_" gradientUnits="userSpaceOnUse" x1="285.212" y1="413.7086" x2="517.335" y2="413.7086">
			<stop  offset="0" style="stop-color:#C1BEE0"/>
			<stop  offset="0.276" style="stop-color:#C5C2E3"/>
			<stop  offset="0.6014" style="stop-color:#D1CFE9"/>
			<stop  offset="0.9504" style="stop-color:#E6E5F4"/>
			<stop  offset="1" style="stop-color:#E9E8F6"/>
		</linearGradient>
		<polygon style="fill:url(#SVGID_00000154421801131406676230000001178901085288943518_);" points="401.28,477.83 285.21,413.71 
			401.27,349.59 517.34,413.71 		"/>
		<polygon class="st51" points="401.28,475.98 286.88,412.78 285.21,413.71 401.28,477.83 517.34,413.71 515.66,412.79 		"/>
		<polygon class="st52" points="401.27,453.35 329.52,413.71 401.27,374.07 473.02,413.71 		"/>
		<g>
			
				<linearGradient id="SVGID_00000031196287056430181640000015207642101339354002_" gradientUnits="userSpaceOnUse" x1="329.5226" y1="413.7094" x2="473.0245" y2="413.7094">
				<stop  offset="0" style="stop-color:#6DC4CB"/>
				<stop  offset="0.1333" style="stop-color:#6BC2CB"/>
				<stop  offset="0.2906" style="stop-color:#67B9CA"/>
				<stop  offset="0.4599" style="stop-color:#61ACC7"/>
				<stop  offset="0.6377" style="stop-color:#5A98C1"/>
				<stop  offset="0.8203" style="stop-color:#547DB7"/>
				<stop  offset="1" style="stop-color:#515DA7"/>
			</linearGradient>
			<polygon style="opacity:0.5;fill:url(#SVGID_00000031196287056430181640000015207642101339354002_);" points="401.27,453.35 
				329.52,413.71 401.27,374.07 473.02,413.71 			"/>
			<g>
				
					<linearGradient id="SVGID_00000065069049623148841280000001822123113895907245_" gradientUnits="userSpaceOnUse" x1="401.2724" y1="366.1599" x2="473.0245" y2="366.1599">
					<stop  offset="0" style="stop-color:#6DC4CB"/>
					<stop  offset="0.1333" style="stop-color:#6BC2CB"/>
					<stop  offset="0.2906" style="stop-color:#67B9CA"/>
					<stop  offset="0.4599" style="stop-color:#61ACC7"/>
					<stop  offset="0.6377" style="stop-color:#5A98C1"/>
					<stop  offset="0.8203" style="stop-color:#547DB7"/>
					<stop  offset="1" style="stop-color:#515DA7"/>
				</linearGradient>
				<polygon style="opacity:0.5;fill:url(#SVGID_00000065069049623148841280000001822123113895907245_);" points="401.27,318.61 
					473.02,358.25 473.02,413.71 401.27,374.07 				"/>
				
					<linearGradient id="SVGID_00000165205072184788485920000013409250863135806363_" gradientUnits="userSpaceOnUse" x1="329.5226" y1="366.1593" x2="401.2746" y2="366.1593">
					<stop  offset="0" style="stop-color:#6DC4CB"/>
					<stop  offset="0.1333" style="stop-color:#6BC2CB"/>
					<stop  offset="0.2906" style="stop-color:#67B9CA"/>
					<stop  offset="0.4599" style="stop-color:#61ACC7"/>
					<stop  offset="0.6377" style="stop-color:#5A98C1"/>
					<stop  offset="0.8203" style="stop-color:#547DB7"/>
					<stop  offset="1" style="stop-color:#515DA7"/>
				</linearGradient>
				<polygon style="opacity:0.5;fill:url(#SVGID_00000165205072184788485920000013409250863135806363_);" points="401.27,374.07 
					329.52,413.71 329.52,358.25 401.27,318.61 				"/>
				
					<linearGradient id="SVGID_00000181088302495742047920000000081317992291603114_" gradientUnits="userSpaceOnUse" x1="329.5226" y1="358.2517" x2="473.0245" y2="358.2517">
					<stop  offset="0" style="stop-color:#6DC4CB"/>
					<stop  offset="0.1333" style="stop-color:#6BC2CB"/>
					<stop  offset="0.2906" style="stop-color:#67B9CA"/>
					<stop  offset="0.4599" style="stop-color:#61ACC7"/>
					<stop  offset="0.6377" style="stop-color:#5A98C1"/>
					<stop  offset="0.8203" style="stop-color:#547DB7"/>
					<stop  offset="1" style="stop-color:#515DA7"/>
				</linearGradient>
				<polygon style="opacity:0.5;fill:url(#SVGID_00000181088302495742047920000000081317992291603114_);" points="401.27,397.89 
					329.52,358.25 401.27,318.61 473.02,358.25 				"/>
				
					<linearGradient id="SVGID_00000031909826623954040520000013330876345287568790_" gradientUnits="userSpaceOnUse" x1="401.2746" y1="405.8012" x2="473.0245" y2="405.8012">
					<stop  offset="0" style="stop-color:#6DC4CB"/>
					<stop  offset="0.1333" style="stop-color:#6BC2CB"/>
					<stop  offset="0.2906" style="stop-color:#67B9CA"/>
					<stop  offset="0.4599" style="stop-color:#61ACC7"/>
					<stop  offset="0.6377" style="stop-color:#5A98C1"/>
					<stop  offset="0.8203" style="stop-color:#547DB7"/>
					<stop  offset="1" style="stop-color:#515DA7"/>
				</linearGradient>
				<polygon style="opacity:0.5;fill:url(#SVGID_00000031909826623954040520000013330876345287568790_);" points="401.27,397.89 
					401.27,453.35 473.02,413.71 473.02,358.25 				"/>
			</g>
			
				<linearGradient id="SVGID_00000041258882995445960920000007613353721761321875_" gradientUnits="userSpaceOnUse" x1="329.5226" y1="405.8006" x2="401.2746" y2="405.8006">
				<stop  offset="0" style="stop-color:#6DC4CB"/>
				<stop  offset="0.1333" style="stop-color:#6BC2CB"/>
				<stop  offset="0.2906" style="stop-color:#67B9CA"/>
				<stop  offset="0.4599" style="stop-color:#61ACC7"/>
				<stop  offset="0.6377" style="stop-color:#5A98C1"/>
				<stop  offset="0.8203" style="stop-color:#547DB7"/>
				<stop  offset="1" style="stop-color:#515DA7"/>
			</linearGradient>
			<polygon style="opacity:0.5;fill:url(#SVGID_00000041258882995445960920000007613353721761321875_);" points="329.52,358.25 
				329.52,413.71 401.27,453.35 401.27,397.89 			"/>
		</g>
	</g>
</g>
</svg>
