<?xml version="1.0" encoding="utf-8"?>
<!-- Generator: Adobe Illustrator 26.0.3, SVG Export Plug-In . SVG Version: 6.00 Build 0)  -->
<svg version="1.1" id="Layer_1" xmlns="http://www.w3.org/2000/svg" xmlns:xlink="http://www.w3.org/1999/xlink" x="0px" y="0px"
	 viewBox="0 0 1417.32 1417.32" style="enable-background:new 0 0 1417.32 1417.32;" xml:space="preserve">
<style type="text/css">
	.st0{opacity:0.2;fill:url(#SVGID_1_);}
	.st1{opacity:0.2;fill:url(#SVGID_00000143603172157599390830000005152925672669968782_);}
	.st2{opacity:0.2;fill:url(#SVGID_00000092419511240843785150000009395843831904467126_);}
	.st3{fill:#0D2B39;}
	.st4{fill:#EA5556;}
	.st5{fill:#B4393A;}
	.st6{fill:#EB5B73;}
	.st7{fill:#EF7E8C;}
	.st8{fill:#FFFFFF;}
	.st9{fill:#E69C83;}
	.st10{fill:#824559;}
	.st11{fill:#F6AC93;}
	.st12{fill:#AD5B76;}
	.st13{fill:#E4E7ED;}
	.st14{fill:#4F4964;}
	.st15{fill:#3B364B;}
	.st16{fill:#605470;}
	.st17{fill:#4E352C;}
	.st18{fill:#FDFEFE;}
	.st19{fill:#C2C2CD;}
	.st20{fill:#FECD60;}
	.st21{fill:#D9DAE4;}
	.st22{fill:#ADA4B1;}
	.st23{fill:#90C36A;}
	.st24{fill:#EE758A;}
	.st25{fill:#34ACE0;}
	.st26{fill:#F7F1E3;}
	.st27{fill:#CFDDF0;}
	.st28{fill:#0B212B;}
	.st29{fill:#12384A;}
	.st30{fill:#F9B047;}
	.st31{fill:#D7E4F6;}
	.st32{fill:#ABA79D;}
	.st33{opacity:0.2;fill:url(#SVGID_00000168102221380749301830000016684576121002048430_);}
	.st34{fill:#8988C1;}
	.st35{fill:url(#SVGID_00000134930833176193998160000008100365496243704232_);}
	.st36{fill:url(#SVGID_00000028300126138516475900000006283927645161693076_);}
	.st37{fill:none;stroke:#CD8F36;stroke-width:0.3665;stroke-linecap:round;stroke-linejoin:round;stroke-miterlimit:10;}
	.st38{fill:#7E7CBA;}
	.st39{fill:#9392C7;}
	.st40{fill:#FEFDFB;}
	.st41{fill:#85827B;}
	.st42{fill:none;stroke:#4F4964;stroke-width:4.6141;stroke-miterlimit:10;}
	.st43{fill:none;stroke:#90C36A;stroke-width:9.2281;stroke-linecap:round;stroke-miterlimit:10;}
	.st44{font-family:'Montserrat-Black';}
	.st45{font-size:31.1477px;}
	.st46{fill:none;stroke:#FECD60;stroke-width:9.2281;stroke-linecap:round;stroke-miterlimit:10;}
	.st47{fill:none;stroke:#EE758A;stroke-width:9.2281;stroke-linecap:round;stroke-miterlimit:10;}
	.st48{fill:none;stroke:#8988C1;stroke-width:9.2281;stroke-miterlimit:10;}
	.st49{font-size:28.1275px;}
	.st50{fill:none;stroke:#C2C2CD;stroke-width:1.5;stroke-linecap:round;stroke-linejoin:round;stroke-miterlimit:10;}
	.st51{fill:none;}
	.st52{fill:#020203;}
</style>
<g>
	<linearGradient id="SVGID_1_" gradientUnits="userSpaceOnUse" x1="594.1927" y1="1015.6541" x2="1020.823" y2="1253.3846">
		<stop  offset="0" style="stop-color:#020203"/>
		<stop  offset="1" style="stop-color:#020203;stop-opacity:0"/>
	</linearGradient>
	<polygon class="st0" points="1018.79,1310.43 636.14,1086.86 714.85,1027.16 738.39,1037.83 1110.28,1256.97 	"/>
	
		<linearGradient id="SVGID_00000057848086288518564280000015584914140380517524_" gradientUnits="userSpaceOnUse" x1="875.6751" y1="862.015" x2="1302.3066" y2="1099.7462">
		<stop  offset="0" style="stop-color:#020203"/>
		<stop  offset="1" style="stop-color:#020203;stop-opacity:0"/>
	</linearGradient>
	<polygon style="opacity:0.2;fill:url(#SVGID_00000057848086288518564280000015584914140380517524_);" points="1300.27,1156.79 
		917.62,933.22 996.34,873.52 1019.88,884.19 1391.76,1103.33 	"/>
	
		<linearGradient id="SVGID_00000011746852937055277900000013480296536972581289_" gradientUnits="userSpaceOnUse" x1="655.539" y1="780.2906" x2="963.3934" y2="1097.6469">
		<stop  offset="0" style="stop-color:#020203"/>
		<stop  offset="1" style="stop-color:#020203;stop-opacity:0.5"/>
	</linearGradient>
	<polygon style="opacity:0.2;fill:url(#SVGID_00000011746852937055277900000013480296536972581289_);" points="882.75,670.58 
		1170.36,844.09 1055.05,911.46 1103.41,939.71 907.62,1053.11 806.71,1112.06 693.51,1112.06 610.98,1160.28 519.18,1106.65 
		457.11,936.92 735.32,747.74 	"/>
	<g>
		<path class="st3" d="M619.52,661.44V543.38c0-5.44-2.87-10.46-7.52-13.18l0,0l-14.69,8.59V675.5l0,0c3.89,2.27,8.69,2.27,12.59,0
			l2.41-1.41C616.77,671.48,619.52,666.66,619.52,661.44z"/>
		<g>
			<path class="st4" d="M676.48,495.75l-16.2-9.45c-0.53-0.38-1.09-0.71-1.67-0.98l-0.02-0.02l0,0c-2.76-1.26-6.09-1.3-9.08,0.45
				l-58.06,33.92c-9.18,5.36-14.84,15.28-14.84,26.01v18.53c0,4.41,2.68,7.88,6.2,9.35l0,0l14.95,8.83L623,554.6l26.63-15.56
				c9.18-5.36,14.84-15.28,14.84-26.01v-4.08L676.48,495.75z"/>
			<path class="st5" d="M608.48,582.9l58.06-33.92c9.18-5.36,14.84-15.28,14.84-26.01v-18.53c0-7.78-8.32-12.64-14.98-8.75
				l-58.06,33.92c-9.18,5.36-14.84,15.28-14.84,26.01v18.53C593.5,581.92,601.82,586.79,608.48,582.9z"/>
		</g>
		<path class="st6" d="M686,462.15c0,0,10.35,8.87,15.99,32.99c5.65,24.13,14.11,59.21,14.11,59.21l-20.56,6.94L686,462.15z"/>
		<path class="st7" d="M609.13,669.94c0,0-1.07-70.71-2.69-93.56c-1.61-22.85-6.45-68.54,0-82.14c6.45-13.6,23.65-21.21,36.55-27.74
			c12.9-6.53,37.63-16.86,43-4.35c5.37,12.51,19.89,151.34,19.89,151.34L609.13,669.94z"/>
		<path class="st8" d="M662.34,494.01c0,0,0.55,10.57-8.06,11.18c-8.61,0.61-16.87-5.51-21.91-14.07
			c-5.04-8.57-7.11-15.26-7.11-15.26l6.98-8.6l36.82,6.31c0,0,10.34,9.38,7.41,20.44C674.27,502.35,662.34,494.01,662.34,494.01z"/>
		<path class="st9" d="M637.44,434.11l-6,38.26l0,0c6.08,9.22,15,16.16,25.37,19.73l5.54,1.91l0,0c4.4-7.5,6.72-16.07,6.72-24.79
			v-10.61L637.44,434.11z"/>
		<path class="st6" d="M666.25,609.39l-30.37-17.74c0,0-6.06-79.32-13.72-89.52c-7.66-10.2-16.6-9.79-18.98,4.89
			c-2.38,14.69,4.47,98.35,8.1,104.46c3.63,6.1,45.56,25.69,45.56,25.69L666.25,609.39z"/>
		<path class="st10" d="M650.25,380.47c0,0-7-9.59-18.81-5.71c-10.58,3.47-10.25,14.69-11.92,30.19
			c-1.67,15.5-0.46,19.81-4.89,22.96c-4.44,3.15-11.45-0.94-11.45-0.94s4.42,16.14,16.34,17.66c11.92,1.53,17.79-1.92,22.78-16.72
			C647.28,413.1,650.25,380.47,650.25,380.47z"/>
		<path class="st11" d="M687.88,411.88c0,0,0,37.53,0,41.61c0,4.08-5.24,17.54-13.3,22.44c-8.06,4.9-21.52-4.97-27.68-11.6
			c-6.16-6.63-12.42-21.04-12.42-21.04s-7.06,0.41-9.28-7.14c-2.22-7.55,0.2-10.81,3.43-11.42c3.22-0.61,29.43-12.85,29.43-12.85
			S688.83,411.32,687.88,411.88z"/>
		<path class="st12" d="M695.26,420.45c0,0,3.63-20.59-7.36-28.15c-11.75-8.08-11.16-13.87-30.12-14.69
			c-18.96-0.82-29.01,13.87-31.24,24.89c-2.23,11.01-0.86,23.95-0.86,23.95s3.62-0.88,5.76,1.46c2.14,2.34,3.35,4.78,3.35,4.78
			l6.36,3.72l2.1-15.55l7-5.38c0,0,3.35,11.72,7.65,12.42C662.2,428.61,695.26,420.45,695.26,420.45z"/>
	</g>
	<polygon class="st13" points="907.62,1053.11 907.62,715.86 400.94,419.83 400.94,757.08 	"/>
	<g>
		<path class="st14" d="M370.75,794.65V676.59c0-5.44-2.87-10.46-7.52-13.18l0,0l-14.69,8.59v136.72l0,0
			c3.89,2.27,8.69,2.27,12.59,0l2.41-1.41C367.99,804.69,370.75,799.87,370.75,794.65z"/>
		<g>
			<path class="st4" d="M427.7,628.96l-16.2-9.45c-0.53-0.38-1.09-0.71-1.67-0.98l-0.03-0.01l0,0c-2.76-1.26-6.09-1.3-9.08,0.45
				l-58.06,33.92c-9.18,5.36-14.84,15.28-14.84,26.01v18.53c0,4.41,2.68,7.88,6.21,9.35h0l14.95,8.83l25.25-27.79l26.63-15.56
				c9.18-5.36,14.84-15.28,14.84-26.01v-4.07L427.7,628.96z"/>
			<path class="st5" d="M359.71,716.11l58.06-33.92c9.18-5.36,14.84-15.28,14.84-26.01v-18.53c0-7.78-8.32-12.64-14.98-8.75
				l-58.06,33.92c-9.18,5.36-14.84,15.28-14.84,26.01v18.53C344.73,715.13,353.05,720,359.71,716.11z"/>
		</g>
		<path class="st15" d="M437.22,595.36c0,0,10.35,8.86,15.99,32.99c5.64,24.13,14.11,59.21,14.11,59.21l-20.56,6.93L437.22,595.36z"
			/>
		<path class="st16" d="M360.36,803.15c0,0-1.08-70.71-2.69-93.56c-1.61-22.85-6.45-68.54,0-82.14
			c6.45-13.6,23.65-21.21,36.55-27.74c12.9-6.53,37.63-16.86,43-4.35c5.38,12.51,19.89,151.34,19.89,151.34L360.36,803.15z"/>
		<path class="st8" d="M382.66,605.59c0,0,12.63,13.87,16.66,22.77c4.03,8.89,24.46,58.67,24.46,58.67s3.49-55.76,2.69-64.46
			c-0.81-8.7-4.57-24.75-4.57-24.75L382.66,605.59z"/>
		<polygon class="st9" points="382.66,563.81 382.66,605.59 396.64,617.12 413.57,619.84 420.29,607.06 420.29,591.83 		"/>
		<path class="st13" d="M421.37,623.1l3-13.75c-1.21-6.19-2.47-11.54-2.47-11.54l-8.33,22.03L421.37,623.1z"/>
		<path class="st13" d="M409,628.35l4.57-8.51l-30.91-14.26c0,0,8.98,9.87,14.21,18.3L409,628.35z"/>
		<path class="st11" d="M439.11,537.02c0,0,0,37.53,0,41.61c0,4.08-5.24,17.54-13.3,22.44c-8.06,4.89-24.77-1.84-30.93-8.47
			c-6.16-6.63-9.17-24.17-9.17-24.17s-7.06,0.41-9.28-7.14c-2.22-7.55,0.2-10.81,3.43-11.42c3.23-0.61,29.43-12.85,29.43-12.85
			S440.06,536.47,439.11,537.02z"/>
		<path class="st17" d="M378.36,550.74c0,0,5.44-2.36,6.27,1.93c0.67,3.52,1.07,13.52,1.07,13.52l5.03,3.57v-13.97
			c0,0,4.44-0.82,7.86-4.08c3.43-3.26,4.43-10.61,4.43-10.61s9.27,1.02,20.36,0c11.09-1.02,17.54-2.04,19.75-8.16
			c2.22-6.12-8.27-30.6-30.04-29.99c-21.77,0.61-34.97,14.69-37.54,24.07c-2.57,9.38,0.75,25.49,0.75,25.49L378.36,550.74z"/>
		<polygon class="st5" points="409,628.35 413.57,634.25 410.22,654.16 424.37,689.74 425.76,651.39 418.97,633.17 421.37,623.1 
			413.57,619.84 		"/>
	</g>
	<polygon class="st18" points="309.45,790.55 549.48,649.9 641.12,703.43 401.08,844.09 	"/>
	<path class="st15" d="M417.47,742.6l-30.37-17.74c0,0-6.06-79.32-13.71-89.52c-7.66-10.2-16.6-9.79-18.98,4.9
		c-2.38,14.69,4.47,98.35,8.1,104.45c3.63,6.1,45.56,25.69,45.56,25.69L417.47,742.6z"/>
	<polygon class="st19" points="427.55,1053.11 427.55,715.86 934.23,419.83 934.23,757.08 	"/>
	<polygon class="st20" points="747.51,583.87 770.93,570.18 770.93,603.85 747.51,617.54 	"/>
	<polygon class="st19" points="759.22,793.45 1025.86,637.61 1025.86,615.65 759.22,771.44 	"/>
	<polygon class="st18" points="759.22,771.44 667.58,717.9 934.23,562.11 1025.86,615.65 	"/>
	<g>
		<path class="st21" d="M909.07,635.13c0,0,4.23,5.33,9.63,7.06c5.4,1.73,14.8,3.64,18.09-1.83c3.29-5.47,0.81-10.5-5.35-14.28
			c-6.16-3.79-18.79-1.51-22.36,2.4C906.64,631.14,909.07,635.13,909.07,635.13z"/>
		<path class="st22" d="M919.87,640.15c-5.4-1.73-9.63-7.06-9.63-7.06s-1.48-2.49-0.92-4.85c-0.08,0.08-0.18,0.15-0.25,0.23
			c-2.43,2.66,0,6.66,0,6.66s4.23,5.33,9.63,7.06c5.4,1.73,14.8,3.64,18.09-1.83c0.31-0.52,0.52-1.02,0.73-1.53
			C933.93,643.58,925.08,641.82,919.87,640.15z"/>
	</g>
	<g>
		<path class="st22" d="M907.99,652.38l-10.75-6.28c-2.22-1.3-4.96-1.3-7.19,0l-50.06,29.25l-9.6,3.24v3.67l0.02-0.01
			c0.02,0.69,0.36,1.36,1.03,1.76l12.29,7.18c2.22,1.3,4.96,1.3,7.19,0l58.62-34.25c0.7-0.41,1.05-1.12,1.05-1.83v-3.61
			L907.99,652.38z"/>
		<path class="st21" d="M831.43,676.74l58.62-34.25c2.22-1.3,4.96-1.3,7.19,0l12.29,7.18c1.4,0.81,1.4,2.85,0,3.67l-58.62,34.25
			c-2.22,1.3-4.96,1.3-7.19,0l-12.29-7.18C830.04,679.6,830.04,677.56,831.43,676.74z"/>
	</g>
	<g>
		<path class="st22" d="M901.81,495.3l-7.28-4.35l-0.02,0.02c-1.88-1.26-4.39-1.55-6.63-0.24l-104.14,60.84
			c-3.42,2-5.53,5.69-5.53,9.69v84.88c0,2.33,1.2,4.22,2.89,5.33l-0.02,0.02l7.54,4.46l5.8-8.24l97.38-56.89
			c3.42-2,5.53-5.69,5.53-9.69v-79.5L901.81,495.3z"/>
		<g>
			<path class="st22" d="M825.23,617.6v26.51c0,2.63,1.39,5.07,3.64,6.39l9.04,5.28c2.09,1.22,4.66,1.22,6.75,0l22.9-14.73v3.18
				c0,2.54-1.34,4.89-3.52,6.17l-17.93,10.49c-2.98,1.75-6.66,1.75-9.64,0l-9.42-5.5c-4.33-2.53-7-7.21-7-12.27v-29.29L825.23,617.6
				z"/>
			<path class="st19" d="M866.41,639.02l-8.95-5.23c-2.26-1.32-3.65-3.76-3.65-6.39v-26.51l-28.59,16.7v26.51
				c0,2.64,1.39,5.07,3.65,6.39l9.04,5.28c2.08,1.22,4.66,1.22,6.74,0l21.75-12.71C867.95,642.17,867.95,639.92,866.41,639.02z"/>
		</g>
		<path class="st14" d="M785.21,565.41v78.72l119.13-69.6V500.4c0-4.91-5.26-7.98-9.46-5.53l-104.14,60.84
			C787.32,557.72,785.21,561.41,785.21,565.41z"/>
		<polygon class="st20" points="791.29,565.85 791.29,628.79 896.32,568.06 896.32,504.49 		"/>
		<path class="st21" d="M785.21,650.29c0,4.91,5.26,7.98,9.46,5.53l104.14-60.84c3.42-2,5.53-5.69,5.53-9.69v-14.12l-119.13,69.6
			V650.29z"/>
		<g>
			<polygon class="st23" points="814.46,604.36 804.46,610.2 804.46,583.36 814.46,577.51 			"/>
			<polygon class="st24" points="830.84,594.79 820.84,600.63 820.84,581.54 830.84,575.7 			"/>
			<polygon class="st25" points="847.39,585.12 837.39,590.96 837.39,558.39 847.39,552.55 			"/>
		</g>
		<g>
			<g>
				<polygon class="st26" points="889.24,546.08 860,563.13 860,560.91 889.24,543.86 				"/>
			</g>
		</g>
		<g>
			<g>
				<polygon class="st26" points="883.75,528.64 860,542.48 860,536.93 883.75,523.08 				"/>
			</g>
		</g>
		<g>
			<g>
				<polygon class="st26" points="889.24,532.81 860,549.86 860,547.64 889.24,530.59 				"/>
			</g>
		</g>
		<g>
			<g>
				<polygon class="st26" points="889.24,539.38 860,556.43 860,554.21 889.24,537.15 				"/>
			</g>
		</g>
		<g>
			<g>
				<polygon class="st26" points="889.24,552.65 860,569.7 860,567.48 889.24,550.43 				"/>
			</g>
		</g>
		<g>
			<g>
				<polygon class="st26" points="889.24,559 860,576.05 860,573.83 889.24,556.78 				"/>
			</g>
		</g>
		<g>
			<g>
				<polygon class="st26" points="889.24,565.57 860,582.62 860,580.4 889.24,563.35 				"/>
			</g>
		</g>
	</g>
	<g>
		<path class="st27" d="M948.12,610.63l-43.15-28.58c0,0-8.29,5.73-10.71,14.29c-2.42,8.56-1.42,14.29-1.42,14.29l41.39,27.39
			L948.12,610.63z"/>
		<path class="st11" d="M904.97,582.05c0,0-3.05-8.31-9.77-10.89c-6.72-2.58-11.81-0.98-16.12,1.76c-4.31,2.74-6.1,3.79-6.1,3.79
			s-12.47-7.32-14.75-5.54c-2.27,1.77,0.95,5.93,5.25,9.66c4.3,3.74,12.05,10.53,12.05,10.53s-7.65,0.27-7.97,4.66
			c-0.32,4.39,20.38,7.27,29.78,4.88C906.75,598.5,904.97,582.05,904.97,582.05z"/>
		<path class="st11" d="M920.92,539.21c0,0-3.54,37.94,1.83,46.92c5.37,8.97,17.46,10.93,17.46,10.93l2.05,15.58l34.2-11.74
			c0,0-7.68-52.71-24.96-61.68C934.23,530.24,920.92,539.21,920.92,539.21z"/>
		<path class="st17" d="M934.23,572.92l-3.01-1.76c0,0,0.53-20.26-1.35-24.61c-1.88-4.35-9.94-3.9-11.56-11.33
			c-1.62-7.43-1.33-27.92,1.89-30.73c3.22-2.81,5.59,0,5.59,0s3.37-6.45,7.04-6.35c3.66,0.1,3.66,3.54,3.66,3.54s4.4-3.27,7.62-3.54
			c3.22-0.27,5.37,3.54,5.37,3.54s4.57-5.2,7.8-3.55c3.22,1.65,1.07,6.36,1.07,6.36s20.96,3.17,31.71,24.11
			c10.75,20.94-1.44,58.75-7.52,66.64c-6.09,7.89-23.92,9.25-30.1,4.35c-6.18-4.89-12.63-19.85-12.63-19.85s6.18,1.34,6.18-8.57
			c0-9.92-4.86-16.18-8.48-15.36C933.9,556.62,934.23,572.92,934.23,572.92z"/>
		<g>
			<path class="st28" d="M927.1,907.34l-0.02,0.05c-1.45-0.72-3.26-0.63-5.26,0.54c-4.67,2.73-8.46,10.06-8.46,16.36
				c0,3.6,1.26,6.03,3.18,7l-0.02,0.05l13.19,7.85l11.06-23.72L927.1,907.34z"/>
			<path class="st14" d="M943.62,922.33c0,6.3-3.79,13.63-8.46,16.36c-4.67,2.73-8.46-0.17-8.46-6.47c0-6.3,3.79-13.63,8.46-16.36
				C939.83,913.12,943.62,916.02,943.62,922.33z"/>
			<path class="st15" d="M938.39,925.38c0,2.41-1.45,5.21-3.23,6.25c-1.79,1.04-3.24-0.06-3.24-2.47c0-2.41,1.45-5.21,3.24-6.25
				C936.94,921.86,938.39,922.97,938.39,925.38z"/>
		</g>
		<g>
			<path class="st15" d="M1019.19,907.34l0.02,0.05c1.45-0.72,3.26-0.63,5.26,0.54c4.67,2.73,8.46,10.06,8.46,16.36
				c0,3.6-1.26,6.03-3.18,7l0.02,0.05l-13.19,7.85l-11.06-23.72L1019.19,907.34z"/>
			<path class="st14" d="M1002.66,922.33c0,6.3,3.79,13.63,8.46,16.36c4.67,2.73,8.46-0.17,8.46-6.47c0-6.3-3.79-13.63-8.46-16.36
				C1006.45,913.12,1002.66,916.02,1002.66,922.33z"/>
			<path class="st15" d="M1007.89,925.38c0,2.41,1.45,5.21,3.24,6.25s3.23-0.06,3.23-2.47c0-2.41-1.45-5.21-3.23-6.25
				S1007.89,922.97,1007.89,925.38z"/>
		</g>
		<g>
			<path class="st15" d="M942,860.84l0.02,0.04c1.28-0.64,2.89-0.56,4.67,0.48c4.15,2.43,7.52,8.93,7.52,14.53
				c0,3.19-1.12,5.35-2.83,6.21l0.02,0.04l-11.71,6.97l-9.82-21.06L942,860.84z"/>
			<path class="st14" d="M927.33,874.15c0,5.6,3.37,12.11,7.51,14.53c4.15,2.42,7.52-0.15,7.52-5.75c0-5.6-3.37-12.11-7.52-14.53
				C930.69,865.98,927.33,868.55,927.33,874.15z"/>
			<path class="st15" d="M931.97,876.87c0,2.14,1.29,4.63,2.87,5.55c1.59,0.93,2.87-0.06,2.87-2.2c0-2.14-1.29-4.63-2.87-5.55
				C933.26,873.74,931.97,874.73,931.97,876.87z"/>
		</g>
		<g>
			<path class="st15" d="M1006.65,860.84l-0.02,0.04c-1.29-0.64-2.89-0.56-4.67,0.48c-4.15,2.43-7.51,8.93-7.51,14.53
				c0,3.19,1.12,5.35,2.83,6.21l-0.02,0.04l11.71,6.97l9.82-21.06L1006.65,860.84z"/>
			<path class="st14" d="M1021.32,874.15c0,5.6-3.36,12.11-7.51,14.53c-4.15,2.42-7.51-0.15-7.51-5.75c0-5.6,3.36-12.11,7.51-14.53
				C1017.96,865.98,1021.32,868.55,1021.32,874.15z"/>
			<path class="st15" d="M1016.68,876.87c0,2.14-1.29,4.63-2.87,5.55c-1.59,0.93-2.87-0.06-2.87-2.2c0-2.14,1.29-4.63,2.87-5.55
				C1015.4,873.74,1016.68,874.73,1016.68,876.87z"/>
		</g>
		<polygon class="st15" points="927.48,861 929.13,867.93 956.87,886.05 960.87,877.48 		"/>
		<polygon class="st14" points="974,875.04 966.34,863.75 935,853.93 927.48,861 960.97,878.23 		"/>
		<polygon class="st15" points="1020.43,861 1018.78,867.93 991.04,886.05 987.04,877.48 		"/>
		<polygon class="st14" points="973.91,875.04 981.57,863.75 1012.91,853.93 1020.43,861 986.94,878.23 		"/>
		<polygon class="st15" points="914.68,911.55 918.11,919.23 928.49,926.85 973.91,896.66 973.91,882.25 		"/>
		<polygon class="st14" points="962.42,875.04 914.68,911.55 926.58,920.32 973.91,887.68 973.91,875.04 		"/>
		<polygon class="st15" points="1033.13,911.55 1029.7,919.23 1019.33,926.85 973.91,896.66 973.91,882.25 		"/>
		<polygon class="st14" points="985.4,875.04 1033.13,911.55 1021.24,920.32 973.91,887.68 973.91,875.04 		"/>
		<path class="st14" d="M973.91,891.42L973.91,891.42c-7.2,0-13.03-5.91-13.03-13.19v-61.81h26.07v61.81
			C986.94,885.52,981.11,891.42,973.91,891.42z"/>
		<path class="st29" d="M914.16,856.4c0,0,8.26,7.68,5.46,19.02c-2.8,11.34-11.55,10.1-21.48,15.16
			c-9.93,5.06-29.03,21.33-37.94,18.77c-8.91-2.56-0.25-16.45,9.4-26.48c9.65-10.03,16.61-17.06,16.61-17.06L914.16,856.4z"/>
		<g>
			<path class="st5" d="M1027.27,777.06l-45.03-26.31c-5.38-3.14-12.01-3.14-17.39,0l-40.43,23.62l-19.46-0.51v18.24l0,0
				c0,3.71,1.81,7.42,5.44,9.54l60.87,35.56c5.38,3.14,12.01,3.14,17.39,0l54.45-31.81c3.63-2.12,5.44-5.83,5.44-9.54v-18.24
				L1027.27,777.06z"/>
			<path class="st4" d="M910.41,764.32l54.45-31.81c5.38-3.14,12.01-3.14,17.39,0l60.87,35.56c7.26,4.24,7.26,14.84,0,19.08
				l-54.45,31.81c-5.38,3.14-12.01,3.14-17.39,0l-60.87-35.56C903.16,779.16,903.16,768.56,910.41,764.32z"/>
		</g>
		<path class="st15" d="M959.8,714.16l13.75,21.76c0,0-47.43-8.99-67.26-15.59c-18.37-6.11-6.69,38.9-4.01,49.82
			c2.69,10.92,40.83,25.6,66.38,29.95c25.54,4.35,47.04-5.92,57.79-13.57c10.75-7.65,14.51-30.49,8.6-41.64
			C1029.14,733.75,959.8,714.16,959.8,714.16z"/>
		<path class="st15" d="M917.08,782.93l-18.82-11.43l17.86,87.21c0,0-2.76,13.06-17.83,16.09c-7.08,1.42-16.27-4.72-16.27-4.72
			s-29.43-129.26-23.78-143.95c5.64-14.69,33.37-13.38,54.04-3.18c20.67,10.2,48.6,20.32,48.6,20.32L917.08,782.93z"/>
		<path class="st30" d="M892.84,675.33c0,0-5.23-9.98-8.43-9.5c-3.21,0.48-1.66,4.74-1.66,4.74s-6.53-5.1-9.5-5.7
			c-2.97-0.6-11.04,1.92-14.25,8.41c-3.21,6.49,4.39,13.1,10.81,16.59c6.41,3.49,12.08,3.33,12.08,3.33L892.84,675.33z"/>
		<path class="st31" d="M920.2,627.86l19.14-16.93l42.94-13.87c0,0,23.69,5.82,32.81,28.61c9.12,22.79,19.96,119.23,19.96,119.23
			s-25.56,22.69-57.43,23.78c-25.79,0.88-35-17.28-33.45-30.94C945.73,724.07,926.93,640.45,920.2,627.86z"/>
		<path class="st27" d="M915.45,680c0,0-3.86-42.37,2.53-49.99c9.38-11.19,25.07-0.17,24.26,26.81
			c-0.44,14.46,0.16,53.59-10.26,54.92c-10.42,1.33-51.99-16.2-52.8-18.65c-0.81-2.45,4.03-18.53,13.7-18.24
			C902.55,675.14,915.45,680,915.45,680z"/>
		<g>
			<path class="st4" d="M1059.44,658.25l-16.2-9.45c-0.53-0.38-1.09-0.71-1.67-0.98l-0.02-0.01l0,0c-2.76-1.26-6.09-1.3-9.08,0.45
				l-58.06,33.92c-9.18,5.36-14.84,15.28-14.84,26.01v18.53c0,4.41,2.67,7.88,6.2,9.35l0,0l14.95,8.83l25.25-27.8l26.63-15.56
				c9.18-5.36,14.84-15.28,14.84-26.01v-4.08L1059.44,658.25z"/>
			<path class="st5" d="M991.44,745.39l58.06-33.92c9.18-5.36,14.84-15.28,14.84-26.01v-18.53c0-7.78-8.32-12.64-14.98-8.75
				l-58.06,33.92c-9.18,5.36-14.84,15.28-14.84,26.01v18.53C976.46,744.42,984.78,749.28,991.44,745.39z"/>
		</g>
		<path class="st14" d="M1040.06,806.09V688.03c0-5.44-2.87-10.46-7.52-13.18l0,0l-14.7,8.59v136.72l0,0c3.9,2.27,8.69,2.27,12.59,0
			l2.41-1.41C1037.32,816.13,1040.06,811.31,1040.06,806.09z"/>
		<polygon class="st27" points="986.41,598.44 983.86,593.24 937.52,603.47 934.23,615.45 		"/>
	</g>
	<polygon class="st18" points="400.94,419.83 427.55,405.28 934.23,701.31 907.62,715.86 	"/>
	<polygon class="st32" points="907.62,1053.11 934.23,1038.56 934.23,701.31 907.62,715.86 	"/>
	<polygon class="st19" points="907.62,1053.11 934.23,1038.56 934.23,701.31 907.62,715.86 	"/>
	<polygon class="st18" points="934.23,419.83 907.62,405.28 400.94,701.31 427.55,715.86 	"/>
	<polygon class="st13" points="667.58,575.62 667.58,912.87 907.62,1053.11 907.62,715.86 	"/>
	
		<linearGradient id="SVGID_00000009572835652653966310000010743015124587869857_" gradientUnits="userSpaceOnUse" x1="718.0925" y1="1138.3749" x2="842.2841" y2="859.4427">
		<stop  offset="0" style="stop-color:#020203"/>
		<stop  offset="1" style="stop-color:#020203;stop-opacity:0.1"/>
	</linearGradient>
	<polygon style="opacity:0.2;fill:url(#SVGID_00000009572835652653966310000010743015124587869857_);" points="759.22,771.44 
		906.97,972.01 906.97,1053.11 667.58,912.87 	"/>
	<polygon class="st21" points="427.55,858.55 427.55,715.86 400.94,701.31 400.94,844.01 309.45,790.55 309.45,985.11 
		401.08,1038.64 401.08,1038.64 427.55,1053.11 519.18,1106.65 519.18,912.09 	"/>
	<polygon class="st19" points="519.18,912.09 759.22,771.45 759.22,793.45 597.79,888.16 597.79,1060.68 519.18,1106.65 	"/>
	<polygon class="st18" points="427.55,858.55 667.58,717.9 759.22,771.44 519.18,912.09 	"/>
	<g>
		<path class="st21" d="M632.66,793.31c0,0,4.23,5.33,9.63,7.06c5.4,1.74,14.8,3.64,18.09-1.83c3.29-5.47,0.81-10.5-5.35-14.28
			c-6.16-3.79-18.79-1.51-22.37,2.4C630.23,789.32,632.66,793.31,632.66,793.31z"/>
		<path class="st22" d="M643.46,798.33c-5.4-1.74-9.63-7.06-9.63-7.06s-1.48-2.49-0.92-4.85c-0.08,0.08-0.18,0.15-0.25,0.23
			c-2.43,2.66,0,6.66,0,6.66s4.23,5.33,9.63,7.06c5.4,1.73,14.8,3.64,18.09-1.83c0.31-0.52,0.52-1.02,0.73-1.53
			C657.52,801.76,648.67,800,643.46,798.33z"/>
	</g>
	<g>
		<path class="st22" d="M631.58,810.56l-10.75-6.28c-2.22-1.3-4.96-1.3-7.19,0l-50.07,29.25l-9.6,3.24v3.67l0.02-0.01
			c0.03,0.69,0.36,1.37,1.03,1.76l12.29,7.18c2.22,1.3,4.96,1.3,7.18,0l58.62-34.25c0.7-0.41,1.05-1.12,1.05-1.83v-3.61
			L631.58,810.56z"/>
		<path class="st21" d="M555.02,834.92l58.62-34.25c2.22-1.3,4.96-1.3,7.19,0l12.29,7.18c1.39,0.81,1.39,2.85,0,3.66l-58.62,34.25
			c-2.22,1.3-4.96,1.3-7.18,0l-12.29-7.18C553.63,837.77,553.63,835.74,555.02,834.92z"/>
	</g>
	<polygon class="st21" points="530.22,935.98 588.11,902.15 588.11,942.47 530.22,976.3 	"/>
	<polygon class="st19" points="569.17,929.33 551.89,939.42 551.89,931.18 569.17,921.08 	"/>
	<polygon class="st21" points="530.22,990.36 588.11,956.53 588.11,996.85 530.22,1030.68 	"/>
	<polygon class="st19" points="569.17,983.99 551.89,994.09 551.89,985.85 569.17,975.75 	"/>
	<polygon class="st21" points="530.22,1045.49 588.42,1011.49 588.42,1052.02 530.22,1086.03 	"/>
	<polygon class="st19" points="569.17,1038.66 551.89,1048.76 551.89,1040.51 569.17,1030.42 	"/>
	<g>
		<path class="st22" d="M625.4,653.48l-7.28-4.35l-0.02,0.02c-1.88-1.26-4.39-1.55-6.63-0.25l-104.14,60.84
			c-3.42,2-5.53,5.69-5.53,9.69v84.88c0,2.33,1.2,4.22,2.89,5.33l-0.02,0.02l7.54,4.46l5.8-8.24L615.41,749
			c3.42-2,5.53-5.69,5.53-9.69v-79.5L625.4,653.48z"/>
		<g>
			<path class="st22" d="M548.82,775.77v26.51c0,2.63,1.39,5.07,3.65,6.39l9.04,5.28c2.09,1.22,4.66,1.22,6.75,0l22.9-14.73v3.19
				c0,2.54-1.34,4.89-3.52,6.17l-17.94,10.49c-2.98,1.74-6.66,1.74-9.64,0l-9.42-5.5c-4.33-2.53-7-7.21-7-12.27V772L548.82,775.77z"
				/>
			<path class="st19" d="M590,797.2l-8.95-5.23c-2.26-1.32-3.65-3.75-3.65-6.39v-26.51l-28.59,16.7v26.51
				c0,2.64,1.39,5.08,3.65,6.39l9.04,5.28c2.08,1.22,4.66,1.22,6.74,0L590,801.25C591.54,800.35,591.54,798.1,590,797.2z"/>
		</g>
		<path class="st14" d="M508.8,723.59v78.72l119.13-69.6v-74.13c0-4.91-5.26-7.99-9.46-5.53l-104.14,60.84
			C510.91,715.89,508.8,719.59,508.8,723.59z"/>
		<polygon class="st34" points="514.88,724.03 514.88,786.97 619.91,726.23 619.91,662.67 		"/>
		<path class="st21" d="M508.8,808.47c0,4.91,5.26,7.98,9.46,5.53l104.14-60.84c3.42-2,5.53-5.69,5.53-9.69v-14.12l-119.13,69.6
			V808.47z"/>
		<g>
			
				<linearGradient id="SVGID_00000086687695930463959840000015319238112157036976_" gradientUnits="userSpaceOnUse" x1="525.4235" y1="644.3229" x2="525.4235" y2="621.8356" gradientTransform="matrix(0.866 -0.5 0 1.1547 93.2191 268.0264)">
				<stop  offset="0" style="stop-color:#EE758A;stop-opacity:0"/>
				<stop  offset="1" style="stop-color:#EE758A"/>
			</linearGradient>
			<path style="fill:url(#SVGID_00000086687695930463959840000015319238112157036976_);" d="M575.58,711.94
				c0,0-6.83,19.4-15.88,23.16c-4.38,1.82-11.43-3.38-17.32,0.79c-6.5,4.61-8.64,11.11-13.12,15c-5.98,5.2-8.38,1.72-8.38,1.72
				v16.86l54.7-31.95V711.94z"/>
			
				<linearGradient id="SVGID_00000004547975439146870100000012919846548871489677_" gradientUnits="userSpaceOnUse" x1="525.4235" y1="652.8608" x2="525.4235" y2="625.3959" gradientTransform="matrix(0.866 -0.5 0 1.1547 93.2191 268.0264)">
				<stop  offset="0" style="stop-color:#FECD60;stop-opacity:0"/>
				<stop  offset="1" style="stop-color:#FECD60"/>
			</linearGradient>
			<path style="fill:url(#SVGID_00000004547975439146870100000012919846548871489677_);" d="M575.58,725.03
				c-7.54,3.36-10.88-17-15.73-8.96s-8.38,30.49-16.21,35.36c-7.83,4.87-11.25-8.45-14.11-10.2c-2.87-1.75-8.64,3.86-8.64,3.86v24.4
				l54.7-31.95V725.03z"/>
			<path class="st37" d="M520.89,745.08c0,0,5.77-5.6,8.64-3.86c2.87,1.75,6.29,15.07,14.11,10.2c7.83-4.87,11.36-27.32,16.21-35.36
				s8.2,12.32,15.73,8.96"/>
			<g>
				<path class="st26" d="M575.58,742.66c-0.28,0-0.51-0.23-0.51-0.52v-39.73c0-0.28,0.23-0.52,0.51-0.52
					c0.28,0,0.51,0.23,0.51,0.52v39.73C576.09,742.43,575.87,742.66,575.58,742.66z"/>
			</g>
			<g>
				<path class="st26" d="M520.89,774.61c-0.28,0-0.51-0.23-0.51-0.52v-39.73c0-0.28,0.23-0.52,0.51-0.52
					c0.28,0,0.51,0.23,0.51,0.52v39.73C521.4,774.38,521.17,774.61,520.89,774.61z"/>
			</g>
			<g>
				<path class="st26" d="M523.48,754.27c-0.2,0-0.39-0.01-0.58-0.04c-1.64-0.21-2.4-1.28-2.43-1.32c-0.16-0.23-0.1-0.55,0.13-0.72
					c0.23-0.16,0.54-0.11,0.71,0.12c0.03,0.04,0.57,0.76,1.75,0.9c1.11,0.15,3.03-0.23,5.88-2.71c1.85-1.61,3.31-3.69,4.85-5.91
					c2.1-3.01,4.48-6.42,8.31-9.13c3.62-2.57,7.62-1.77,11.15-1.07c2.36,0.47,4.6,0.91,6.27,0.22c8.74-3.63,15.53-22.67,15.59-22.86
					c0.1-0.27,0.39-0.4,0.65-0.31c0.26,0.1,0.4,0.39,0.31,0.66c-0.28,0.8-7.01,19.66-16.17,23.47c-1.95,0.82-4.33,0.34-6.85-0.16
					c-3.49-0.69-7.1-1.41-10.37,0.9c-3.68,2.61-5.91,5.8-8.06,8.88c-1.58,2.26-3.08,4.4-5.02,6.09
					C527.32,753.27,525.26,754.27,523.48,754.27z"/>
			</g>
			<g>
				<g>
					<path class="st26" d="M536.22,765.66c-0.28,0-0.51-0.23-0.51-0.52v-39.73c0-0.28,0.23-0.52,0.51-0.52s0.51,0.23,0.51,0.52
						v39.73C536.72,765.43,536.5,765.66,536.22,765.66z"/>
				</g>
				<g>
					<path class="st26" d="M560.26,751.61c-0.28,0-0.51-0.23-0.51-0.52v-39.73c0-0.28,0.23-0.52,0.51-0.52
						c0.28,0,0.51,0.23,0.51,0.52v39.73C560.76,751.38,560.54,751.61,560.26,751.61z"/>
				</g>
			</g>
			<g>
				<g>
					<g>
						<polygon class="st26" points="530.3,733.41 526.84,735.42 526.84,732.45 530.3,730.43 						"/>
					</g>
				</g>
				<g>
					<g>
						<polygon class="st26" points="533.24,734.69 526.84,738.43 526.84,737.24 533.24,733.5 						"/>
					</g>
				</g>
			</g>
			<g>
				<g>
					<g>
						<polygon class="st26" points="549.85,726.95 546.4,728.97 546.4,726 549.85,723.98 						"/>
					</g>
				</g>
				<g>
					<g>
						<polygon class="st26" points="552.79,728.24 546.4,731.98 546.4,730.79 552.79,727.05 						"/>
					</g>
				</g>
			</g>
			<g>
				<g>
					<g>
						<polygon class="st26" points="569.11,706.18 565.66,708.2 565.66,705.22 569.11,703.2 						"/>
					</g>
				</g>
				<g>
					<g>
						<polygon class="st26" points="572.06,707.46 565.66,711.2 565.66,710.01 572.06,706.28 						"/>
					</g>
				</g>
			</g>
			<g>
				<g>
					<polygon class="st26" points="608.41,685.05 584.65,698.9 584.65,693.34 608.41,679.5 					"/>
				</g>
			</g>
			<g>
				<g>
					<polygon class="st26" points="613.9,689.22 584.65,706.28 584.65,704.05 613.9,687 					"/>
				</g>
			</g>
			<g>
				<g>
					<polygon class="st26" points="613.9,695.79 584.65,712.84 584.65,710.62 613.9,693.57 					"/>
				</g>
			</g>
			<g>
				<g>
					<polygon class="st26" points="613.9,702.5 584.65,719.55 584.65,717.32 613.9,700.27 					"/>
				</g>
			</g>
			<g>
				<g>
					<polygon class="st26" points="613.9,709.06 584.65,726.11 584.65,723.89 613.9,706.84 					"/>
				</g>
			</g>
			<g>
				<g>
					<polygon class="st26" points="613.9,715.42 584.65,732.47 584.65,730.25 613.9,713.19 					"/>
				</g>
			</g>
			<g>
				<g>
					<polygon class="st26" points="613.9,721.98 584.65,739.03 584.65,736.81 613.9,719.76 					"/>
				</g>
			</g>
		</g>
	</g>
	<g>
		<path class="st11" d="M670.64,794.58c0,0-4.35-9.64-12.81-12.04c-8.46-2.4-19.4-1.22-19.86,0.7c-0.47,1.93,3.1,3.43,6,3.75
			c2.9,0.33,6.03,0.98,6.97,3.1c0.93,2.12-6.8,1.47-8.09,2.77c-1.29,1.3-1.29,2.45,3.06,4.24c4.35,1.79,11.76,5.86,15.15,5.7
			C664.43,802.65,670.64,794.58,670.64,794.58z"/>
		<path class="st38" d="M698.74,797.39c0,0,27.2-52.79,36.58-49.65c9.38,3.14,15.02,17.01,9.78,30.48
			c-5.24,13.46-26.32,46.71-36.74,48.04c-10.42,1.33-49.93-14.99-50.74-17.44c-0.81-2.45,4.03-18.53,13.71-18.24
			C681,790.87,698.74,797.39,698.74,797.39z"/>
		<path class="st13" d="M678.31,995.14c0,0,7.29,3.71,7.56,12.21c0.27,8.5-6.1,9.39-12.05,14.93c-5.95,5.53-16.12,20.77-22.86,20.77
			c-6.74,0-3.4-11.46,1.38-20.42c4.78-8.95,8.28-15.28,8.28-15.28L678.31,995.14z"/>
		<g>
			<path class="st15" d="M646.7,1062.92l-0.02,0.05c-1.45-0.72-3.26-0.63-5.26,0.54c-4.67,2.73-8.46,10.06-8.46,16.36
				c0,3.6,1.26,6.03,3.18,7l-0.02,0.05l13.19,7.85l11.06-23.72L646.7,1062.92z"/>
			<path class="st14" d="M663.22,1077.91c0,6.3-3.79,13.63-8.46,16.36c-4.67,2.73-8.46-0.17-8.46-6.47c0-6.3,3.79-13.63,8.46-16.36
				C659.43,1068.71,663.22,1071.61,663.22,1077.91z"/>
			<path class="st15" d="M657.99,1080.96c0,2.41-1.45,5.21-3.23,6.25c-1.79,1.04-3.23-0.06-3.23-2.47c0-2.41,1.45-5.21,3.23-6.25
				C656.55,1077.45,657.99,1078.56,657.99,1080.96z"/>
		</g>
		<g>
			<path class="st15" d="M738.78,1062.92l0.02,0.05c1.45-0.72,3.26-0.63,5.26,0.54c4.67,2.73,8.46,10.06,8.46,16.36
				c0,3.6-1.26,6.03-3.18,7l0.02,0.05l-13.19,7.85l-11.06-23.72L738.78,1062.92z"/>
			<path class="st14" d="M722.26,1077.91c0,6.3,3.79,13.63,8.46,16.36c4.67,2.73,8.46-0.17,8.46-6.47c0-6.3-3.79-13.63-8.46-16.36
				C726.05,1068.71,722.26,1071.61,722.26,1077.91z"/>
			<path class="st15" d="M727.49,1080.96c0,2.41,1.45,5.21,3.23,6.25c1.79,1.04,3.24-0.06,3.24-2.47c0-2.41-1.45-5.21-3.24-6.25
				C728.94,1077.45,727.49,1078.56,727.49,1080.96z"/>
		</g>
		<g>
			<path class="st15" d="M661.6,1016.43l0.02,0.04c1.29-0.64,2.89-0.56,4.67,0.48c4.15,2.43,7.51,8.93,7.51,14.53
				c0,3.19-1.12,5.35-2.83,6.21l0.02,0.04l-11.71,6.97l-9.82-21.06L661.6,1016.43z"/>
			<path class="st14" d="M646.93,1029.74c0,5.6,3.36,12.11,7.51,14.53c4.15,2.42,7.51-0.15,7.51-5.75c0-5.6-3.36-12.11-7.51-14.53
				C650.29,1021.57,646.93,1024.14,646.93,1029.74z"/>
			<path class="st15" d="M651.57,1032.45c0,2.14,1.29,4.63,2.87,5.55c1.59,0.93,2.87-0.06,2.87-2.2c0-2.14-1.29-4.63-2.87-5.55
				C652.86,1029.33,651.57,1030.31,651.57,1032.45z"/>
		</g>
		<g>
			<path class="st15" d="M726.25,1016.43l-0.02,0.04c-1.29-0.64-2.9-0.56-4.67,0.48c-4.15,2.43-7.51,8.93-7.51,14.53
				c0,3.19,1.12,5.35,2.82,6.21l-0.02,0.04l11.71,6.97l9.82-21.06L726.25,1016.43z"/>
			<path class="st14" d="M740.93,1029.74c0,5.6-3.36,12.11-7.51,14.53c-4.15,2.42-7.51-0.15-7.51-5.75c0-5.6,3.36-12.11,7.51-14.53
				C737.56,1021.57,740.93,1024.14,740.93,1029.74z"/>
			<path class="st15" d="M736.28,1032.45c0,2.14-1.29,4.63-2.87,5.55c-1.59,0.93-2.87-0.06-2.87-2.2c0-2.14,1.28-4.63,2.87-5.55
				C735,1029.33,736.28,1030.31,736.28,1032.45z"/>
		</g>
		<polygon class="st15" points="647.08,1016.58 648.73,1023.52 676.47,1041.64 680.47,1033.07 		"/>
		<polygon class="st14" points="693.6,1030.62 685.95,1019.34 654.6,1009.51 647.08,1016.58 680.57,1033.82 		"/>
		<polygon class="st15" points="740.03,1016.58 738.38,1023.52 710.64,1041.64 706.64,1033.07 		"/>
		<polygon class="st14" points="693.51,1030.62 701.17,1019.34 732.51,1009.51 740.03,1016.58 706.54,1033.82 		"/>
		<polygon class="st15" points="634.29,1067.14 637.71,1074.82 648.09,1082.43 693.51,1052.24 693.51,1037.83 		"/>
		<polygon class="st14" points="682.02,1030.62 634.29,1067.14 646.18,1075.91 693.51,1043.27 693.51,1030.62 		"/>
		<polygon class="st15" points="752.73,1067.14 749.3,1074.82 738.93,1082.43 693.51,1052.24 693.51,1037.83 		"/>
		<polygon class="st14" points="705,1030.62 752.73,1067.14 740.84,1075.91 693.51,1043.27 693.51,1030.62 		"/>
		<path class="st14" d="M693.51,1047.01L693.51,1047.01c-7.2,0-13.03-5.91-13.03-13.19v-61.81h26.07v61.81
			C706.54,1041.1,700.71,1047.01,693.51,1047.01z"/>
		<path class="st9" d="M661.22,866.45c0,0-13.43-4.15-25.8,0c-12.37,4.15-13.21,17.74-8.76,34.88
			c4.45,17.13,34.55,107.91,34.55,107.91s12.47-1.29,16.76-6.5c4.29-5.21-7.29-32.92-8.53-47.99
			C668.21,939.68,661.22,866.45,661.22,866.45z"/>
		<path class="st13" d="M658.94,1010.87c0,0,7.29,3.71,7.56,12.21c0.27,8.5-6.1,9.39-12.05,14.93
			c-5.95,5.54-16.12,20.77-22.86,20.77s-3.4-11.46,1.38-20.42c4.78-8.96,8.28-15.28,8.28-15.28L658.94,1010.87z"/>
		<path class="st11" d="M641.23,880.29c0,0-13.43-4.15-25.8,0c-12.37,4.15-13.21,17.74-8.76,34.88
			c4.45,17.13,34.55,107.91,34.55,107.91s12.47-1.29,16.76-6.5c4.29-5.21-7.29-32.92-8.53-47.99
			C648.22,953.52,641.23,880.29,641.23,880.29z"/>
		<g>
			<path class="st5" d="M746.87,932.64l-45.03-26.31c-5.38-3.14-12.01-3.14-17.39,0l-40.43,23.62l-19.46-0.51v18.24l0,0
				c0,3.71,1.81,7.42,5.44,9.54l60.87,35.56c5.38,3.14,12.01,3.14,17.39,0l54.45-31.81c3.63-2.12,5.44-5.83,5.44-9.54V933.2
				L746.87,932.64z"/>
			<path class="st4" d="M630.01,919.91l54.44-31.81c5.38-3.15,12.01-3.15,17.39,0l60.87,35.56c7.26,4.24,7.26,14.84,0,19.08
				l-54.45,31.81c-5.38,3.14-12.01,3.14-17.39,0l-60.87-35.56C622.76,934.75,622.76,924.15,630.01,919.91z"/>
		</g>
		<path class="st38" d="M679.4,869.75l-17.76-3.56c0,0-7.39,4.32-24.13,14.1c-16.75,9.78-18.31,34.53-15.62,45.45
			c2.69,10.92,40.83,25.6,66.38,29.95c25.54,4.35,47.04-5.92,57.79-13.57c10.75-7.65,14.51-30.49,8.6-41.64
			C748.74,889.33,679.4,869.75,679.4,869.75z"/>
		<path class="st39" d="M740,758.1c0,0,16.91,10.61,16.32,23.33c-0.59,12.72,0.08,55.57,0.02,72.76
			c-0.07,17.19,3.2,51.46-3.81,57.99c-7.01,6.53-42.49,20.67-66.14,9.25c-23.65-11.42-23.86-25.67-23.22-35.68
			c0.64-10.01,12.53-10.55,13.3-26.33c0.78-15.77-7.12-20.13-6.13-35.9c0.99-15.78-5.7-26.49,6.13-38.46
			C688.3,773.09,740,758.1,740,758.1z"/>
		<path class="st11" d="M612.44,830.92c0,0-5.23-9.98-8.43-9.49c-3.21,0.48-1.66,4.74-1.66,4.74s-6.53-5.1-9.5-5.7
			c-2.97-0.6-11.05,1.93-14.25,8.41c-3.21,6.49,4.39,13.1,10.81,16.59c6.41,3.49,12.07,3.32,12.07,3.32L612.44,830.92z"/>
		<path class="st38" d="M639.89,837.25c0,0,27.2-52.79,36.58-49.65c9.38,3.14,15.02,17.01,9.78,30.48
			c-5.24,13.46-26.32,46.71-36.74,48.04c-10.42,1.32-49.93-14.99-50.74-17.44c-0.81-2.45,4.03-18.53,13.71-18.24
			C622.15,830.72,639.89,837.25,639.89,837.25z"/>
		<path class="st11" d="M672.95,700.58c0,0-4.6,41.95,3.52,48.55c8.12,6.6,15.42,8.97,15.42,8.97S687.86,700.58,672.95,700.58z"/>
		<path class="st17" d="M682.62,666.31c0,0,5.91-9.79,22.58-6.53c16.66,3.26,37.09,19.04,40.31,40.8
			c3.22,21.76-3.19,38.37,3.05,55.89c6.24,17.52,11.87,22.85,5.42,39.98c-6.45,17.13-36.28,33.86-48.38,26.92
			c-12.1-6.94-16.93-16.73-20.16-33.86c-3.22-17.13,0.79-44.64-0.81-54.67c-1.6-10.03-8.17-28.56-8.17-28.56s-11.59,0.41-11.18-15.5
			C665.69,674.88,674.16,666.72,682.62,666.31z"/>
		<g>
			<path class="st4" d="M779.04,813.83l-16.2-9.45c-0.53-0.38-1.09-0.71-1.67-0.98l-0.03-0.02v0c-2.76-1.26-6.09-1.3-9.08,0.45
				l-58.06,33.92c-9.18,5.36-14.84,15.28-14.84,26.01v18.53c0,4.41,2.67,7.88,6.2,9.35l0,0l14.95,8.83l25.26-27.8l26.63-15.56
				c9.18-5.36,14.84-15.28,14.84-26.01v-4.08L779.04,813.83z"/>
			<path class="st5" d="M711.04,900.98l58.06-33.92c9.18-5.36,14.84-15.28,14.84-26.01v-18.53c0-7.78-8.32-12.64-14.98-8.75
				l-58.06,33.92c-9.18,5.36-14.84,15.28-14.84,26.01v18.53C696.06,900.01,704.38,904.87,711.04,900.98z"/>
		</g>
		<path class="st14" d="M759.67,961.67V843.61c0-5.44-2.87-10.46-7.52-13.18l0,0l-14.69,8.58v136.72v0c3.89,2.27,8.69,2.27,12.58,0
			l2.41-1.41C756.91,971.72,759.67,966.89,759.67,961.67z"/>
	</g>
	<polygon class="st20" points="446.68,742.66 470.1,728.97 470.1,762.64 446.68,776.32 	"/>
	<polygon class="st34" points="463.57,772.75 486.99,759.07 486.99,792.74 463.57,806.42 	"/>
	<polygon class="st24" points="634.63,662.51 658.05,648.83 658.05,682.49 634.63,696.18 	"/>
	<g>
		<polygon class="st40" points="470.1,855.03 510.51,831.42 559.75,860.18 519.33,883.79 		"/>
		<g>
			<polygon class="st41" points="481.73,854.61 510.73,837.67 513.06,839.03 484.06,855.97 			"/>
			<polygon class="st41" points="488.2,858.6 512.29,844.53 514.62,845.89 490.53,859.96 			"/>
			<polygon class="st41" points="494.3,861.88 518.38,847.82 520.71,849.18 496.63,863.25 			"/>
			<polygon class="st41" points="500.43,865.48 524.52,851.42 526.85,852.78 502.77,866.84 			"/>
			<polygon class="st41" points="506.48,869.03 530.57,854.97 532.91,856.33 508.82,870.4 			"/>
			<polygon class="st41" points="512.58,872.58 536.67,858.52 539,859.89 514.91,873.95 			"/>
			<polygon class="st41" points="518.5,876.18 542.59,862.12 544.92,863.48 520.83,877.55 			"/>
		</g>
	</g>
</g>
<g>
	<path class="st42" d="M1231.98,504.66c0,46.85-37.53,84.82-83.82,84.82c-46.29,0-83.82-37.98-83.82-84.82
		c0-46.84,37.53-84.82,83.82-84.82C1194.45,419.83,1231.98,457.81,1231.98,504.66z"/>
	<path class="st43" d="M1148.16,419.83c46.29,0,83.82,37.98,83.82,84.82c0,46.85-37.53,84.82-83.82,84.82
		c-46.29,0-83.82-37.98-83.82-84.82"/>
	<path class="st14" d="M1193,504.66c0,25.06-20.08,45.38-44.84,45.38c-24.76,0-44.84-20.32-44.84-45.38
		c0-25.06,20.08-45.37,44.84-45.37C1172.92,459.28,1193,479.6,1193,504.66z"/>
	<text transform="matrix(0.9882 0 0 1 1117.5176 514.9668)" class="st8 st44 st45">80%</text>
</g>
<g>
	<ellipse class="st42" cx="179.63" cy="704.55" rx="83.82" ry="84.82"/>
	<path class="st46" d="M179.63,619.73c46.29,0,83.82,37.97,83.82,84.82s-37.53,84.82-83.82,84.82"/>
	<path class="st14" d="M224.47,704.55c0,25.06-20.08,45.38-44.84,45.38c-24.76,0-44.84-20.32-44.84-45.38
		c0-25.06,20.08-45.38,44.84-45.38C204.39,659.17,224.47,679.49,224.47,704.55z"/>
	<text transform="matrix(0.9882 0 0 1 148.9849 714.8594)" class="st8 st44 st45">70%</text>
</g>
<g>
	<path class="st42" d="M1028.96,1086.03c0,46.84-37.72,84.82-84.24,84.82c-46.52,0-84.24-37.98-84.24-84.82
		c0-46.84,37.71-84.82,84.24-84.82C991.24,1001.2,1028.96,1039.18,1028.96,1086.03z"/>
	<path class="st47" d="M944.72,1001.2c46.53,0,84.24,37.98,84.24,84.82"/>
	<ellipse class="st14" cx="944.72" cy="1086.03" rx="45.06" ry="45.37"/>
	<text transform="matrix(0.9932 0 0 1 913.9219 1096.335)" class="st8 st44 st45">30%</text>
</g>
<g>
	<path class="st48" d="M875.11,252.37c0,46.85-37.53,84.82-83.82,84.82s-83.82-37.98-83.82-84.82c0-46.84,37.53-84.82,83.82-84.82
		S875.11,205.53,875.11,252.37z"/>
	<path class="st14" d="M836.13,252.37c0,25.06-20.08,45.38-44.84,45.38c-24.76,0-44.84-20.32-44.84-45.38
		c0-25.06,20.08-45.37,44.84-45.37C816.06,207,836.13,227.31,836.13,252.37z"/>
	<text transform="matrix(0.9882 0 0 1 751.6025 262.6802)" class="st8 st44 st49">100%</text>
</g>
<polyline class="st50" points="799.66,883.01 820.05,883.01 820.05,1082.85 842.5,1082.85 "/>
<polyline class="st50" points="336.77,550.13 179.63,550.13 179.63,582.05 "/>
<polyline class="st50" points="657.53,352.62 657.53,267.8 681.77,267.8 "/>
<line class="st50" x1="987.04" y1="502.95" x2="1032.92" y2="502.95"/>
<rect x="989.78" y="357.58" class="st51" width="328.91" height="32.5"/>
<text transform="matrix(0.9882 0 0 1 999.4688 378.4507)"><tspan x="0" y="0" class="st52 st44 st49">KADR SAVODXONLI</tspan><tspan x="302.26" y="0" class="st52 st44 st49">-</tspan></text>
<rect x="626.84" y="106.9" class="st51" width="328.91" height="32.5"/>
<text transform="matrix(0.9882 0 0 1 641.5601 127.7666)" class="st52 st44 st49">ELEKTRON ISHLASH</text>
<rect x="825.63" y="1204.45" class="st51" width="238.18" height="62.7"/>
<text transform="matrix(0.9882 0 0 1 859.5098 1225.3174)"><tspan x="0" y="0" class="st52 st44 st49">MOLIYAVIY</tspan><tspan x="-22.78" y="33.75" class="st52 st44 st49">TEJAMKORLIK</tspan></text>
<rect x="41.18" y="840.08" class="st51" width="238.18" height="102.68"/>
<text transform="matrix(0.9882 0 0 1 82.7451 860.9551)"><tspan x="0" y="0" class="st52 st44 st49">KORXONA</tspan><tspan x="-33.95" y="33.75" class="st52 st44 st49">MANFAATLARI</tspan><tspan x="1.39" y="67.51" class="st52 st44 st49">HIMOYASI</tspan></text>
</svg>
